<?xml version="1.0"?>
<svg width="1190" height="1155" xmlns="http://www.w3.org/2000/svg" xmlns:svg="http://www.w3.org/2000/svg" clip-rule="evenodd" fill-rule="evenodd" version="1.1">

 <g class="layer">
  <title>Layer 1</title>
  <g id="svg_1">
   <path d="m609.5,-0.5c2.67,0 5.33,0 8,0c12.84,1.19 25.84,2.19 39,3c-0.05,3.7 -0.39,7.36 -1,11c-11.06,-0.12 -22.06,-0.79 -33,-2c-0.75,0.88 -1.25,1.88 -1.5,3c-0.44,8.01 -0.94,16.01 -1.5,24c9.31,0.86 18.64,1.53 28,2c-0.22,3.68 -0.56,7.35 -1,11c-9.33,-0.42 -18.66,-0.76 -28,-1c-0.54,9.03 -0.54,18.03 0,27c10.94,1.21 21.94,1.88 33,2c0,4 0,8 0,12c-15.7,-0.73 -31.37,-1.73 -47,-3c1.94,-29.65 3.61,-59.32 5,-89z" fill="#ffffff" id="svg_2" opacity="0.94"/>
  </g>
  <g id="svg_3">
   <path d="m589.5,63.5c-0.93,1.07 -1.27,2.4 -1,4c-4.78,11.94 -13.45,19.44 -26,22.5c-9.67,0.83 -19.34,1.67 -29,2.5c-1.33,-0.33 -2.67,-0.67 -4,-1c-2.31,-29.2 -4.65,-58.36 -7,-87.5c12.93,-2.03 25.93,-2.7 39,-2c15.82,5.16 25.32,15.99 28.5,32.5c2.11,9.72 1.94,19.39 -0.5,29zm-39,-51c13.95,0.45 22.79,7.45 26.5,21c3.82,12.9 2.49,25.23 -4,37c-3.27,3.38 -7.1,5.88 -11.5,7.5c-6.67,0.98 -13.33,1.81 -20,2.5c-0.8,-1.58 -1.3,-3.24 -1.5,-5c-1.3,-19.69 -2.8,-39.36 -4.5,-59c0.11,-0.94 0.44,-1.78 1,-2.5c4.85,-0.17 9.52,-0.67 14,-1.5z" fill="#ffffff" id="svg_4" opacity="0.95"/>
  </g>
  <g id="svg_5">
   <path d="m676.5,4.5c3.58,0.99 7.24,1.65 11,2c-3.89,25.68 -7.89,51.35 -12,77c9.69,1.28 19.36,2.78 29,4.5c1.06,4.19 0.73,8.36 -1,12.5c-13.92,-2.77 -27.92,-5.1 -42,-7c4.68,-29.76 9.68,-59.42 15,-89z" fill="#ffffff" id="svg_6" opacity="0.94"/>
  </g>
  <g id="svg_7">
   <path d="m443.5,19.5c20.96,2.12 34.13,13.45 39.5,34c4.34,14.27 3.01,27.93 -4,41c-5.44,6.64 -12.28,11.14 -20.5,13.5c-8.91,2.64 -17.91,4.81 -27,6.5c-7.2,-28.45 -14.86,-56.78 -23,-85c11.52,-4.13 23.19,-7.46 35,-10zm-2,12c13.61,-0.24 22.78,6.1 27.5,19c11.4,28.2 2.24,44.87 -27.5,50c-6.62,-21.15 -12.62,-42.48 -18,-64c6.19,-1.38 12.19,-3.04 18,-5z" fill="#ffffff" id="svg_8" opacity="0.95"/>
  </g>
  <g id="svg_9">
   <path d="m762.5,20.5c5.81,1.66 11.31,3.99 16.5,7c1.55,20.31 2.89,40.64 4,61c13.13,-14.8 26.63,-29.3 40.5,-43.5c6.09,0.25 11.92,1.75 17.5,4.5c0.67,1.33 0.67,2.67 0,4c-10.34,26.84 -20.17,53.84 -29.5,81c-5.05,-1.18 -10.05,-2.68 -15,-4.5c-0.46,-0.41 -0.79,-0.91 -1,-1.5c6.74,-16.46 12.58,-33.12 17.5,-50c-10.52,11.52 -21.36,22.69 -32.5,33.5c-4.92,1.12 -8.75,-0.38 -11.5,-4.5c-1.25,-16.65 -2.25,-33.32 -3,-50c-6.27,18.15 -12.94,36.15 -20,54c-4.69,-2.1 -9.52,-3.76 -14.5,-5c9.54,-28.95 19.87,-57.61 31,-86z" fill="#ffffff" id="svg_10" opacity="0.96"/>
  </g>
  <g id="svg_11">
   <path d="m361.5,46.5c3.46,0.94 6.29,2.94 8.5,6c18.46,21.46 37.3,42.63 56.5,63.5c-3.51,2.95 -7.51,4.28 -12,4c-5.52,-5.55 -10.69,-11.39 -15.5,-17.5c-9.31,4.49 -18.81,8.49 -28.5,12c0.32,8.05 0.82,16.05 1.5,24c-0.37,0.92 -0.87,1.75 -1.5,2.5c-2.78,0.89 -5.45,2.06 -8,3.5c-0.75,-0.88 -1.25,-1.88 -1.5,-3c-3.05,-30.3 -5.39,-60.64 -7,-91c2.77,-0.97 5.27,-2.3 7.5,-4zm3,17c9.13,9.97 18.13,20.14 27,30.5c-7.4,3.69 -14.9,7.19 -22.5,10.5c-1.24,-13.72 -2.74,-27.39 -4.5,-41z" fill="#ffffff" id="svg_12" opacity="0.95"/>
  </g>
  <g id="svg_13" transform="matrix(1, 0, 0, 1, 0, 0)">
   <path d="m881.5,71.5c4.42,1.91 8.76,4.07 13,6.5c1.83,0.9 3.16,2.23 4,4c-6.12,30.66 -12.79,61.16 -20,91.5c-4.89,-2.07 -9.39,-4.74 -13.5,-8c-0.78,-1.23 -1.28,-2.56 -1.5,-4c1.34,-5.34 2.67,-10.68 4,-16c-7.24,-5.54 -15.07,-10.21 -23.5,-14c-4.46,3.45 -8.62,7.29 -12.5,11.5c-7.2,0.24 -13.53,-2.09 -19,-7c23.07,-21.52 46.07,-43.02 69,-64.5zm-3,24c0.6,0.24 0.93,0.74 1,1.5c-2.47,10.72 -5.47,21.22 -9,31.5c-5.17,-2.75 -10.17,-5.75 -15,-9c7.02,-7.85 14.52,-15.18 22.5,-22c0.46,-0.59 0.63,-1.26 0.5,-2z" fill="#ffffff" id="svg_14" opacity="0.97"/>
  </g>
  <g id="svg_15">
   <path d="m590.5,76.5c1.42,8.01 3.92,15.68 7.5,23c5.72,7.39 11.06,15.06 16,23c1.74,5.22 2.91,10.55 3.5,16c0.09,6.36 -0.24,12.7 -1,19c-0.03,1 0.47,1.66 1.5,2c18.18,3 30.68,13 37.5,30c1.5,3.63 1.83,7.29 1,11c-15.07,-6.72 -28.74,-4.72 -41,6c-10.42,9.06 -14.09,20.39 -11,34c-5,-2.67 -10,-5.33 -15,-8c-0.33,-52.17 0,-104.17 1,-156z" fill="#0a73b9" id="svg_16"/>
  </g>
  <g id="svg_17">
   <path d="m296.5,81.5c15.91,-1.29 28.74,4.37 38.5,17c12.24,14.96 15.58,31.63 10,50c-1.75,3.17 -3.75,6.17 -6,9c-10.08,7.29 -20.58,13.96 -31.5,20c-16.28,-25.05 -31.95,-50.55 -47,-76.5c11.69,-7.34 23.69,-13.84 36,-19.5zm0,12c8.72,-1.37 16.38,0.8 23,6.5c9.5,9.17 15.17,20.34 17,33.5c-0.37,6.91 -3.04,12.74 -8,17.5c-5.58,3.38 -11.08,6.88 -16.5,10.5c-11.75,-18.5 -23.25,-37.17 -34.5,-56c6.19,-4.26 12.53,-8.26 19,-12z" fill="#ffffff" id="svg_18" opacity="0.95"/>
  </g>
  <g id="svg_19">
   <path d="m588.5,73.5c0,52.67 0,105.33 0,158c-5.17,-2.75 -10.17,-5.75 -15,-9c-0.33,-0.67 -0.67,-1.33 -1,-2c-1,-2.67 -2,-5.33 -3,-8c1.86,-32.16 3.53,-64.5 5,-97c0,-2.53 -0.34,-4.86 -1,-7c8.31,-10.28 13.31,-21.94 15,-35z" fill="#bc9540" id="svg_20" opacity="1"/>
  </g>
  <g id="svg_21">
   <path d="m573.5,108.5c0.66,2.14 1,4.47 1,7c-1.47,32.5 -3.14,64.84 -5,97c-4.19,-5.76 -9.53,-10.09 -16,-13c0.72,-0.42 1.22,-1.08 1.5,-2c0.54,-12 1.04,-24 1.5,-36c-1.33,0 -2.67,0 -4,0c3.13,-0.98 6.46,-1.31 10,-1c0.24,-1.29 -0.1,-2.29 -1,-3c-0.61,-6.31 -0.94,-12.65 -1,-19c0.86,-11.6 5.19,-21.6 13,-30z" fill="#c69d43" id="svg_22" opacity="1"/>
  </g>
  <g id="svg_23" transform="matrix(1, 0, 0, 1, 0, 0)">
   <path d="m934.5,114.5c15.72,-0.56 28.22,5.44 37.5,18c3.7,5.58 5.2,11.58 4.5,18c-4.65,3.18 -9.65,4.18 -15,3c-9.11,-22.81 -22.94,-26.15 -41.5,-10c-5.82,6.81 -9.32,14.64 -10.5,23.5c0.57,12.23 6.74,18.73 18.5,19.5c2.04,-2.92 4.21,-5.76 6.5,-8.5c-1.89,-2.19 -4.05,-4.02 -6.5,-5.5c-0.67,-1.33 -0.67,-2.67 0,-4c2.2,-3.73 4.86,-7.06 8,-10c7.61,5.11 14.78,10.78 21.5,17c-7.48,9.98 -15.14,19.81 -23,29.5c-20.33,0.75 -34.16,-8.42 -41.5,-27.5c-4.01,-24.13 4.15,-42.97 24.5,-56.5c5.52,-2.89 11.19,-5.06 17,-6.5z" fill="#ffffff" id="svg_24" opacity="0.96"/>
  </g>
  <g id="svg_25">
   <path d="m239.5,116.5c1.87,0.36 3.37,1.36 4.5,3c16.42,22.51 33.09,44.84 50,67c0.67,0.67 0.67,1.33 0,2c-2.5,1.83 -5,3.67 -7.5,5.5c-1.5,0.51 -2.66,0.01 -3.5,-1.5c-16.62,-22.95 -33.62,-45.62 -51,-68c-0.67,-0.67 -0.67,-1.33 0,-2c2.69,-1.86 5.19,-3.86 7.5,-6z" fill="#ffffff" id="svg_26" opacity="0.95"/>
  </g>
  <g id="svg_27">
   <path d="m589.5,63.5c0.09,4.36 0.42,8.69 1,13c-1,51.83 -1.33,103.83 -1,156c-0.67,0 -1,-0.33 -1,-1c0,-52.67 0,-105.33 0,-158c0,-2 0,-4 0,-6c-0.27,-1.6 0.07,-2.93 1,-4z" fill="#698471" id="svg_28"/>
  </g>
  <g id="svg_29">
   <path d="m617.5,138.5c142.85,10.99 256.68,73.66 341.5,188c57.18,81.05 86.01,171.38 86.5,271c-5.49,0.63 -11.15,0.63 -17,0c0.33,-7.85 -0.01,-15.52 -1,-23c0.04,-8.54 -0.63,-16.87 -2,-25c-14.69,-123.92 -70.36,-224.75 -167,-302.5c-4.23,-3.08 -8.57,-5.92 -13,-8.5c-68,-49.78 -144.33,-76.78 -229,-81c0.76,-6.3 1.09,-12.64 1,-19z" fill="#fdc84a" id="svg_30" opacity="0.99"/>
  </g>
  <g id="svg_31">
   <path d="m560.5,138.5c0.06,6.35 0.39,12.69 1,19c-18.35,0.67 -36.35,3 -54,7c-114.02,24.56 -204.52,84.22 -271.5,179c-4.36,6.06 -8.19,12.39 -11.5,19c-44.57,71.47 -66.57,149.47 -66,234c-6.17,0.9 -12.5,1.56 -19,2c2.34,-154.85 64.34,-279.35 186,-373.5c69.99,-50.84 148.33,-79.67 235,-86.5z" fill="#fdc94a" id="svg_32" opacity="0.99"/>
  </g>
  <g id="svg_33" transform="matrix(1, 0, 0, 1, 0, 0)">
   <path d="m210.5,141.5c4,0 8,0 12,0c1.05,3.29 1.55,6.62 1.5,10c-6.85,0.17 -12.85,2.5 -18,7c-5.15,10.37 -2.15,17.04 9,20c8.76,-2.64 17.59,-4.97 26.5,-7c13.13,2.3 21.3,9.97 24.5,23c1.98,16.03 -4.85,26.19 -20.5,30.5c-4.33,0.67 -8.67,0.67 -13,0c-1.47,-3.32 -2.14,-6.82 -2,-10.5c5.99,-0.08 11.99,-1.25 18,-3.5c9.41,-8.61 9.07,-16.94 -1,-25c-1.85,-0.42 -3.69,-0.92 -5.5,-1.5c-8.12,3.15 -16.46,5.49 -25,7c-14.04,-1.37 -22.37,-9.04 -25,-23c-0.73,-13.77 5.44,-22.77 18.5,-27z" fill="#ffffff" id="svg_34" opacity="0.95"/>
  </g>
  <g id="svg_35">
   <path d="m998.5,154.5c9.61,7.77 18.44,16.44 26.5,26c9.31,17.15 7.98,33.48 -4,49c-9.01,11.09 -20.51,17.92 -34.5,20.5c-9.87,0.95 -18.87,-1.38 -27,-7c-8.38,-8.04 -16.38,-16.37 -24,-25c21.13,-20.97 42.13,-42.13 63,-63.5zm1,25c5.79,4.29 10.29,9.62 13.5,16c1.16,6.53 -0.18,12.53 -4,18c-6.53,10.59 -15.86,16.92 -28,19c-3.38,-0.02 -6.55,-0.85 -9.5,-2.5c-3.65,-3.58 -7.32,-7.25 -11,-11c13.2,-13.03 26.2,-26.2 39,-39.5z" fill="#ffffff" id="svg_36" opacity="0.97"/>
  </g>
  <g id="svg_37">
   <path d="m561.5,157.5c0.9,0.71 1.24,1.71 1,3c-3.54,-0.31 -6.87,0.02 -10,1c-11.63,3.29 -20.3,10.29 -26,21c-0.33,0 -0.67,0 -1,0c-1.67,-2.33 -3.67,-4.33 -6,-6c-3.02,-5.02 -7.02,-9.02 -12,-12c17.65,-4 35.65,-6.33 54,-7z" fill="#b6473f" id="svg_38"/>
  </g>
  <g id="svg_39">
   <path d="m552.5,161.5c1.33,0 2.67,0 4,0c-0.46,12 -0.96,24 -1.5,36c-0.28,0.92 -0.78,1.58 -1.5,2c-3.62,-1.16 -7.29,-2.16 -11,-3c-0.67,-0.33 -1.33,-0.67 -2,-1c-4.69,-4.36 -9.36,-8.69 -14,-13c5.7,-10.71 14.37,-17.71 26,-21z" fill="#d7aa48" id="svg_40"/>
  </g>
  <g id="svg_41">
   <path d="m507.5,164.5c4.98,2.98 8.98,6.98 12,12c-2.67,0 -5.33,0 -8,0c0,-1 0,-2 0,-3c-113.81,23.73 -204.48,82.56 -272,176.5c0.59,0.46 1.26,0.63 2,0.5c-5.64,3.97 -11.31,7.97 -17,12c3.31,-6.61 7.14,-12.94 11.5,-19c66.98,-94.78 157.48,-154.44 271.5,-179z" fill="#e1b2ae" id="svg_42"/>
  </g>
  <g id="svg_43">
   <path d="m616.5,157.5c84.67,4.22 161,31.22 229,81c-3.28,-0.08 -6.28,0.59 -9,2c-6.89,2.11 -13.55,4.78 -20,8c-35.62,-21.63 -73.62,-38.13 -114,-49.5c-15.48,-4.13 -31.15,-7.3 -47,-9.5c-6.82,-17 -19.32,-27 -37.5,-30c-1.03,-0.34 -1.53,-1 -1.5,-2z" fill="#b6463f" id="svg_44"/>
  </g>
  <g id="svg_45">
   <path d="m519.5,176.5c2.33,1.67 4.33,3.67 6,6c-1.15,2.98 -2.32,5.98 -3.5,9c-0.67,3 -0.67,6 0,9c2.3,-1.57 4.8,-2.74 7.5,-3.5c3.86,-0.18 7.52,-0.68 11,-1.5c0.67,0.33 1.33,0.67 2,1c5.7,5.71 11.7,11.04 18,16c-53.93,4.98 -104.6,20.48 -152,46.5c1.88,0.2 3.55,0.7 5,1.5c-11.47,-0.13 -22.13,2.53 -32,8c-34.36,14.67 -66.7,32.67 -97,54c-14.82,8.58 -29.15,17.91 -43,28c-0.74,0.13 -1.41,-0.04 -2,-0.5c67.52,-93.94 158.19,-152.77 272,-176.5c0,1 0,2 0,3c2.67,0 5.33,0 8,0z" fill="#e3b7b3" id="svg_46"/>
  </g>
  <g id="svg_47">
   <path d="m525.5,182.5c0.33,0 0.67,0 1,0c4.64,4.31 9.31,8.64 14,13c-3.48,0.82 -7.14,1.32 -11,1.5c-2.7,0.76 -5.2,1.93 -7.5,3.5c-0.67,-3 -0.67,-6 0,-9c1.18,-3.02 2.35,-6.02 3.5,-9z" fill="#f4dfb6" id="svg_48"/>
  </g>
  <g id="svg_49" transform="matrix(1, 0, 0, 1, 0, 0)">
   <path d="m164.5,188.5c15.85,-1.15 26.35,5.85 31.5,21c0.88,5.34 0.38,10.5 -1.5,15.5c14.71,2.31 29.38,4.81 44,7.5c-2.32,7.5 -7.32,10.66 -15,9.5c-11.61,-2.66 -23.28,-4.66 -35,-6c-2,2 -4,4 -6,6c8.93,7.72 17.76,15.55 26.5,23.5c0.67,0.67 0.67,1.33 0,2c-2.71,2.37 -5.04,5.04 -7,8c-22.64,-19.47 -44.81,-39.47 -66.5,-60c6.15,-7.31 12.48,-14.48 19,-21.5c3.27,-2.13 6.6,-3.96 10,-5.5zm2,12c7.53,-0.32 13.36,2.68 17.5,9c3.06,5.39 2.73,10.72 -1,16c-2.31,3.48 -5.15,6.48 -8.5,9c-7.81,-6.65 -15.48,-13.48 -23,-20.5c4.6,-5.11 9.6,-9.61 15,-13.5z" fill="#ffffff" id="svg_50" opacity="0.95"/>
  </g>
  <g id="svg_51">
   <path d="m655.5,189.5c15.85,2.2 31.52,5.37 47,9.5c40.38,11.37 78.38,27.87 114,49.5c-7.65,4.83 -15.65,9.16 -24,13c-3.25,-2.97 -6.92,-5.47 -11,-7.5c-13.3,-6.82 -26.64,-13.32 -40,-19.5c1.13,-0.62 2.13,-1.46 3,-2.5c-11.69,-2.26 -22.86,-6.09 -33.5,-11.5c-5.62,-2.87 -11.45,-3.54 -17.5,-2c-25.86,-5.79 -51.86,-9.79 -78,-12c12.26,-10.72 25.93,-12.72 41,-6c0.83,-3.71 0.5,-7.37 -1,-11z" fill="#ba4e3f" id="svg_52"/>
  </g>
  <g id="svg_53">
   <path d="m542.5,196.5c3.71,0.84 7.38,1.84 11,3c6.47,2.91 11.81,7.24 16,13c1,2.67 2,5.33 3,8c-4.25,-2.25 -8.25,-4.91 -12,-8c-6.3,-4.96 -12.3,-10.29 -18,-16z" fill="#bd5742" id="svg_54"/>
  </g>
  <g id="svg_55">
   <path d="m560.5,212.5c3.75,3.09 7.75,5.75 12,8c0.33,0.67 0.67,1.33 1,2c0.53,13.34 -0.13,26.68 -2,40c-36.09,2.75 -70.76,11.08 -104,25c-0.67,-0.33 -1.33,-0.67 -2,-1c-6.09,-4.09 -12.43,-7.76 -19,-11c-6.69,-5.01 -14.02,-9.01 -22,-12c-3.6,-1.3 -7.26,-2.3 -11,-3c-1.45,-0.8 -3.12,-1.3 -5,-1.5c47.4,-26.02 98.07,-41.52 152,-46.5z" fill="#e6bdb3" id="svg_56"/>
  </g>
  <g id="svg_57">
   <path d="m615.5,206.5c26.14,2.21 52.14,6.21 78,12c-11.99,5.8 -23.66,12.3 -35,19.5c-17.22,11.63 -34.88,12.46 -53,2.5c-0.33,0 -0.67,0 -1,0c-3.09,-13.61 0.58,-24.94 11,-34z" fill="#bf5841" id="svg_58"/>
  </g>
  <g id="svg_59">
   <path d="m573.5,222.5c4.83,3.25 9.83,6.25 15,9c0,0.67 0.33,1 1,1c0,75.33 0,150.67 0,226c-0.33,0 -0.67,0 -1,0c0,-30.67 0,-61.33 0,-92c0.17,-5.68 0,-11.34 -0.5,-17c-2.96,3.74 -5.79,7.58 -8.5,11.5c-2.67,0.67 -5.33,0.67 -8,0c-2.55,-2.05 -5.21,-3.89 -8,-5.5c2.67,-31 5.33,-62 8,-93c1.87,-13.32 2.53,-26.66 2,-40z" fill="#dfd2b4" id="svg_60"/>
  </g>
  <g id="svg_61">
   <path d="m121.5,231.5c3.66,1.83 7,4.17 10,7c-5.92,8.84 -12.09,17.51 -18.5,26c-0.67,1 -0.67,2 0,3c6.7,4.86 13.53,9.53 20.5,14c5.69,-7.19 11.19,-14.52 16.5,-22c3.33,1.75 6.17,4.08 8.5,7c-5,7.33 -10,14.67 -15,22c7.03,5.53 14.19,10.86 21.5,16c7,-9.33 14,-18.67 21,-28c2.67,2 5.33,4 8,6c-1.07,3.47 -2.73,6.8 -5,10c-6.64,9.63 -13.64,18.97 -21,28c-24.16,-16.41 -48.16,-33.08 -72,-50c-0.32,-1.41 0.02,-2.74 1,-4c8.39,-11.55 16.55,-23.21 24.5,-35z" fill="#ffffff" id="svg_62" opacity="0.95"/>
  </g>
  <g id="svg_63">
   <path d="m1066.5,232.5c2.82,-0.42 4.99,0.58 6.5,3c2,2.67 4,5.33 6,8c1.19,1.54 1.52,3.21 1,5c-17.69,25.39 -35.86,50.39 -54.5,75c-2.66,-2.83 -5.16,-5.83 -7.5,-9c-1.46,-2.87 -1.79,-5.87 -1,-9c3.66,-3.98 6.82,-8.31 9.5,-13c-4.92,-7.76 -10.42,-15.09 -16.5,-22c-6.1,3.48 -12.6,5.31 -19.5,5.5c-4.15,-3.45 -7.49,-7.62 -10,-12.5c0.21,-0.59 0.54,-1.09 1,-1.5c28.54,-9.57 56.88,-19.4 85,-29.5zm-10,21c-6.28,8.79 -12.78,17.46 -19.5,26c-4.19,-4.56 -8.03,-9.39 -11.5,-14.5c10.18,-4.33 20.51,-8.17 31,-11.5z" fill="#ffffff" id="svg_64" opacity="0.97"/>
  </g>
  <g id="svg_65">
   <path d="m589.5,232.5c5,2.67 10,5.33 15,8c0.33,0 0.67,0 1,0c0.05,7.35 0.38,14.68 1,22c1.33,15.33 2.67,30.67 4,46c1.55,17.31 2.89,34.65 4,52c1.44,15.3 2.77,30.63 4,46c1.66,18.97 3,37.97 4,57c-11.26,0.69 -22.26,-0.64 -33,-4c0,-0.33 0,-0.67 0,-1c0,-75.33 0,-150.67 0,-226z" fill="#9ac7e3" id="svg_66"/>
  </g>
  <g id="svg_67">
   <path d="m741.5,234.5c13.36,6.18 26.7,12.68 40,19.5c4.08,2.03 7.75,4.53 11,7.5c-1.87,0.76 -3.53,1.76 -5,3c-17.21,7.36 -35.21,10.2 -54,8.5c-2,-1 -4,-2 -6,-3c-5.06,-7.74 -5.23,-15.57 -0.5,-23.5c4.71,-4.21 9.54,-8.21 14.5,-12z" fill="#be5640" id="svg_68"/>
  </g>
  <g id="svg_69">
   <path d="m845.5,238.5c4.43,2.58 8.77,5.42 13,8.5c96.64,77.75 152.31,178.58 167,302.5c0.13,0.74 -0.04,1.41 -0.5,2c-3.57,-8.81 -7.4,-17.47 -11.5,-26c2.33,0 4.67,0 7,0c-4.88,-29.15 -12.72,-57.48 -23.5,-85c-1.7,-0.91 -3.53,-1.24 -5.5,-1c0.17,-4.68 0,-9.35 -0.5,-14c-11.95,-27.26 -26.45,-52.92 -43.5,-77c-1.19,-0.93 -2.52,-1.26 -4,-1c0.2,-2.49 -0.3,-4.82 -1.5,-7c-29.6,-39.44 -64.77,-72.77 -105.5,-100c2.72,-1.41 5.72,-2.08 9,-2z" fill="#e1b0ab" id="svg_70"/>
  </g>
  <g id="svg_71">
   <path d="m836.5,240.5c40.73,27.23 75.9,60.56 105.5,100c1.2,2.18 1.7,4.51 1.5,7c1.48,-0.26 2.81,0.07 4,1c17.05,24.08 31.55,49.74 43.5,77c0.5,4.65 0.67,9.32 0.5,14c1.97,-0.24 3.8,0.09 5.5,1c10.78,27.52 18.62,55.85 23.5,85c-2.33,0 -4.67,0 -7,0c-5.49,-10.99 -11.49,-21.66 -18,-32c-17.36,-30.06 -36.69,-58.72 -58,-86c-12.72,-16.74 -26.38,-32.74 -41,-48c1.02,-0.4 1.19,-1.06 0.5,-2c-29.65,-36.66 -64.48,-67.16 -104.5,-91.5c-1.52,-1.01 -3.19,-1.51 -5,-1.5c1.47,-1.24 3.13,-2.24 5,-3c8.35,-3.84 16.35,-8.17 24,-13c6.45,-3.22 13.11,-5.89 20,-8z" fill="#e3b7b3" id="svg_72"/>
  </g>
  <g id="svg_73">
   <path d="m741.5,234.5c-4.96,3.79 -9.79,7.79 -14.5,12c-4.73,7.93 -4.56,15.76 0.5,23.5c2,1 4,2 6,3c18.79,1.7 36.79,-1.14 54,-8.5c1.81,-0.01 3.48,0.49 5,1.5c40.02,24.34 74.85,54.84 104.5,91.5c0.69,0.94 0.52,1.6 -0.5,2c-7.21,-6.71 -14.88,-12.88 -23,-18.5c-3.11,-1.87 -6.44,-3.04 -10,-3.5c-7.84,-1.13 -15.84,-1.13 -24,0c-8.77,1.62 -17.44,3.62 -26,6c-0.67,0 -1.33,0 -2,0c0.09,-1 -0.25,-1.83 -1,-2.5c-59.07,-48.68 -127.07,-74.84 -204,-78.5c-0.62,-7.32 -0.95,-14.65 -1,-22c18.12,9.96 35.78,9.13 53,-2.5c11.34,-7.2 23.01,-13.7 35,-19.5c6.05,-1.54 11.88,-0.87 17.5,2c10.64,5.41 21.81,9.24 33.5,11.5c-0.87,1.04 -1.87,1.88 -3,2.5z" fill="#e6beb3" id="svg_74"/>
  </g>
  <g id="svg_75">
   <path d="m413.5,260.5c3.74,0.7 7.4,1.7 11,3c-111.04,60.29 -177.87,152.95 -200.5,278c-2.49,16.58 -3.99,33.25 -4.5,50c-5.5,0.87 -11.17,1.53 -17,2c4.24,-119.63 51.24,-218.46 141,-296.5c13.07,-9.92 25.73,-19.42 38,-28.5c9.87,-5.47 20.53,-8.13 32,-8z" fill="#bd5440" id="svg_76"/>
  </g>
  <g id="svg_77">
   <path d="m571.5,262.5c-2.67,31 -5.33,62 -8,93c-6.67,-4.67 -13.33,-9.33 -20,-14c-5.96,-4.32 -11.96,-8.65 -18,-13c-6.7,-5.36 -13.7,-10.36 -21,-15c-6.05,-4.72 -12.39,-9.05 -19,-13c-6,-4.33 -12,-8.67 -18,-13c33.24,-13.92 67.91,-22.25 104,-25z" fill="#eac5b4" id="svg_78"/>
  </g>
  <g id="svg_79">
   <path d="m606.5,262.5c76.93,3.66 144.93,29.82 204,78.5c0.75,0.67 1.09,1.5 1,2.5c-6.71,1.88 -13.38,3.88 -20,6c-7.22,1.74 -14.22,4.07 -21,7c-4.07,1.14 -8.07,2.47 -12,4c-30.67,-22.19 -64.67,-37.35 -102,-45.5c-15.2,-3.15 -30.54,-5.31 -46,-6.5c-1.33,-15.33 -2.67,-30.67 -4,-46z" fill="#e9c4b4" id="svg_80"/>
  </g>
  <g id="svg_81">
   <path d="m424.5,263.5c7.98,2.99 15.31,6.99 22,12c-93.7,44.38 -157.2,115.71 -190.5,214c-10.48,32.86 -15.98,66.52 -16.5,101c-6.65,0.64 -13.31,0.97 -20,1c0.51,-16.75 2.01,-33.42 4.5,-50c22.63,-125.05 89.46,-217.71 200.5,-278z" fill="#c05a41" id="svg_82"/>
  </g>
  <g id="svg_83">
   <path d="m381.5,268.5c-12.27,9.08 -24.93,18.58 -38,28.5c-89.76,78.04 -136.76,176.87 -141,296.5c-7.41,0.38 -14.74,1.05 -22,2c2.52,-103.77 37.52,-194.6 105,-272.5c-0.23,-0.4 -0.56,-0.56 -1,-0.5c30.3,-21.33 62.64,-39.33 97,-54z" fill="#ba4e3f" id="svg_84"/>
  </g>
  <g id="svg_85">
   <path d="m446.5,275.5c6.57,3.24 12.91,6.91 19,11c-44.85,20.2 -84.35,48.2 -118.5,84c-55.35,61.83 -84.85,134.5 -88.5,218c-6.27,0.87 -12.6,1.53 -19,2c0.52,-34.48 6.02,-68.14 16.5,-101c33.3,-98.29 96.8,-169.62 190.5,-214z" fill="#c36041" id="svg_86"/>
  </g>
  <g id="svg_87">
   <path d="m1103.5,282.5c2.12,0.53 3.62,1.87 4.5,4c1.41,3.16 3.08,6.16 5,9c0.67,1 0.67,2 0,3c-20.25,11.54 -40.42,23.21 -60.5,35c-1.08,0.87 -1.25,1.87 -0.5,3c4.29,7.08 8.46,14.25 12.5,21.5c-4.92,3.8 -10.26,6.46 -16,8c-7.53,-12.7 -14.87,-25.54 -22,-38.5c25.57,-15.28 51.23,-30.28 77,-45z" fill="#ffffff" id="svg_88" opacity="0.97"/>
  </g>
  <g id="svg_89" transform="matrix(1, 0, 0, 1, 0, 0)">
   <path d="m85.5,283.5c21.3,22.13 42.47,44.47 63.5,67c0.16,3.86 -1,7.36 -3.5,10.5c-30.93,-4.46 -61.76,-9.63 -92.5,-15.5c0.46,-3.27 1.8,-6.27 4,-9c1.4,-0.62 2.9,-0.95 4.5,-1c23.03,4.06 46.03,7.89 69,11.5c-16.72,-16.27 -32.89,-33.1 -48.5,-50.5c-0.64,-1.11 -1.14,-2.27 -1.5,-3.5c1.29,-3.42 2.96,-6.58 5,-9.5z" fill="#ffffff" id="svg_90" opacity="0.95"/>
  </g>
  <g id="svg_91">
   <path d="m465.5,286.5c0.67,0.33 1.33,0.67 2,1c6,4.33 12,8.67 18,13c-90.62,35.12 -153.46,98.12 -188.5,189c-11.34,31.72 -17.84,64.39 -19.5,98c-6.31,0.69 -12.64,1.02 -19,1c3.65,-83.5 33.15,-156.17 88.5,-218c34.15,-35.8 73.65,-63.8 118.5,-84z" fill="#c66642" id="svg_92"/>
  </g>
  <g id="svg_93">
   <path d="m485.5,300.5c6.61,3.95 12.95,8.28 19,13c-74.13,25.95 -130.96,72.95 -170.5,141c-22.23,40.85 -34.39,84.52 -36.5,131c-6.6,0.85 -13.27,1.52 -20,2c1.66,-33.61 8.16,-66.28 19.5,-98c35.04,-90.88 97.88,-153.88 188.5,-189z" fill="#c96d42" id="svg_94"/>
  </g>
  <g id="svg_95">
   <path d="m610.5,308.5c15.46,1.19 30.8,3.35 46,6.5c37.33,8.15 71.33,23.31 102,45.5c-4,1.67 -8,3.33 -12,5c-6.57,2.3 -12.91,4.96 -19,8c-8.6,2.96 -16.6,6.96 -24,12c-0.67,0 -1.33,0 -2,0c-27.05,-14.57 -56.05,-22.9 -87,-25c-1.11,-17.35 -2.45,-34.69 -4,-52z" fill="#eccab4" id="svg_96"/>
  </g>
  <g id="svg_97">
   <path d="m504.5,313.5c7.3,4.64 14.3,9.64 21,15c-106.98,31.82 -174.48,101.82 -202.5,210c-3.3,15.18 -5.46,30.52 -6.5,46c-6.3,0.76 -12.64,1.09 -19,1c2.11,-46.48 14.27,-90.15 36.5,-131c39.54,-68.05 96.37,-115.05 170.5,-141z" fill="#cc7343" id="svg_98"/>
  </g>
  <g id="svg_99">
   <path d="m284.5,322.5c0.44,-0.06 0.77,0.1 1,0.5c-67.48,77.9 -102.48,168.73 -105,272.5c-7.34,0.22 -14.67,0.56 -22,1c-0.57,-84.53 21.43,-162.53 66,-234c5.69,-4.03 11.36,-8.03 17,-12c13.85,-10.09 28.18,-19.42 43,-28z" fill="#b7483f" id="svg_100"/>
  </g>
  <g id="svg_101">
   <path d="m525.5,328.5c6.04,4.35 12.04,8.68 18,13c-92.87,21.7 -157.37,76.7 -193.5,165c-8.82,24.28 -14.32,49.28 -16.5,75c0.82,0.89 1.82,1.22 3,1c-6.5,0.88 -13.17,1.55 -20,2c1.04,-15.48 3.2,-30.82 6.5,-46c28.02,-108.18 95.52,-178.18 202.5,-210z" fill="#cf7944" id="svg_102"/>
  </g>
  <g id="svg_103">
   <path d="m863.5,337.5c67.15,71.36 102.15,156.36 105,255c-4.69,-0.04 -9.36,-0.37 -14,-1c-1.42,-0.95 -3.09,-1.28 -5,-1c-4.1,-99 -41.43,-182.83 -112,-251.5c0.92,-0.28 1.58,-0.78 2,-1.5c8.16,-1.13 16.16,-1.13 24,0z" fill="#c05a41" id="svg_104"/>
  </g>
  <g id="svg_105">
   <path d="m1133.5,335.5c1.97,1.93 3.47,4.26 4.5,7c5.12,12.68 10.62,25.18 16.5,37.5c-5.09,2.63 -10.26,5.13 -15.5,7.5c-4.35,-9.36 -8.68,-18.7 -13,-28c-5.91,2.7 -11.74,5.54 -17.5,8.5c3.19,6.57 6.19,13.23 9,20c-4.57,2.87 -9.4,5.37 -14.5,7.5c-3.03,-7.29 -6.53,-14.29 -10.5,-21c-6,2.33 -11.67,5.17 -17,8.5c3.39,8.78 7.06,17.45 11,26c-0.14,0.77 -0.48,1.44 -1,2c-3.79,1.39 -7.45,3.06 -11,5c-1.44,0.78 -2.78,0.61 -4,-0.5c-6.06,-14.45 -12.39,-28.78 -19,-43c27.39,-12.37 54.73,-24.7 82,-37z" fill="#ffffff" id="svg_106" opacity="0.96"/>
  </g>
  <g id="svg_107">
   <path d="m863.5,337.5c3.56,0.46 6.89,1.63 10,3.5c8.12,5.62 15.79,11.79 23,18.5c14.62,15.26 28.28,31.26 41,48c-0.54,0.06 -0.88,0.39 -1,1c31.79,57.51 48.13,119.18 49,185c2.24,-0.29 4.24,0.04 6,1c-5.01,-0.25 -10.01,-0.58 -15,-1c-2.74,0.1 -5.4,-0.24 -8,-1c-2.85,-98.64 -37.85,-183.64 -105,-255z" fill="#bd5540" id="svg_108"/>
  </g>
  <g id="svg_109">
   <path d="m839.5,337.5c-0.42,0.72 -1.08,1.22 -2,1.5c70.57,68.67 107.9,152.5 112,251.5c1.91,-0.28 3.58,0.05 5,1c-8.36,-0.46 -16.69,-1.13 -25,-2c-4.28,-98.56 -42.95,-180.56 -116,-246c8.56,-2.38 17.23,-4.38 26,-6z" fill="#c36041" id="svg_110"/>
  </g>
  <g id="svg_111">
   <path d="m543.5,341.5c6.67,4.67 13.33,9.33 20,14c0.29,2.24 -0.04,4.24 -1,6c-73.13,11.29 -129.96,47.62 -170.5,109c-20.87,34.1 -33.03,71.1 -36.5,111c-6.33,0.4 -12.66,0.73 -19,1c-1.18,0.22 -2.18,-0.11 -3,-1c2.18,-25.72 7.68,-50.72 16.5,-75c36.13,-88.3 100.63,-143.3 193.5,-165z" fill="#d37f44" id="svg_112"/>
  </g>
  <g id="svg_113">
   <path d="m811.5,343.5c0.67,0 1.33,0 2,0c73.05,65.44 111.72,147.44 116,246c-6.02,0 -12.02,-0.34 -18,-1c-6.35,-97.03 -46.35,-176.7 -120,-239c6.62,-2.12 13.29,-4.12 20,-6z" fill="#c66642" id="svg_114"/>
  </g>
  <g id="svg_115">
   <path d="m791.5,349.5c73.65,62.3 113.65,141.97 120,239c-6.82,-0.5 -13.49,-1.17 -20,-2c-6.24,-95.01 -46.91,-171.18 -122,-228.5c0.56,-0.38 0.89,-0.88 1,-1.5c6.78,-2.93 13.78,-5.26 21,-7z" fill="#c96d42" id="svg_116"/>
  </g>
  <g id="svg_117">
   <path d="m770.5,356.5c-0.11,0.62 -0.44,1.12 -1,1.5c75.09,57.32 115.76,133.49 122,228.5c-5.06,0.23 -10.06,-0.11 -15,-1c-1.42,-0.95 -3.09,-1.28 -5,-1c-6.83,-93.36 -48.49,-166.36 -125,-219c4,-1.67 8,-3.33 12,-5c3.93,-1.53 7.93,-2.86 12,-4z" fill="#cd7343" id="svg_118"/>
  </g>
  <g id="svg_119" transform="matrix(1, 0, 0, 1, 0, 0)">
   <path d="m47.5,358.5c27.64,11.49 54.97,23.49 82,36c-1.33,3 -2.67,6 -4,9c-0.86,1.08 -1.86,1.25 -3,0.5c-26.81,-11.24 -53.48,-22.74 -80,-34.5c1.48,-3.78 3.15,-7.45 5,-11z" fill="#ffffff" id="svg_120" opacity="0.95"/>
  </g>
  <g id="svg_121">
   <path d="m614.5,360.5c30.95,2.1 59.95,10.43 87,25c-4.36,2.61 -8.53,5.61 -12.5,9c-0.61,2.56 -0.11,4.9 1.5,7c3.98,4.65 8.31,8.98 13,13c-1.68,3.36 -3.35,6.69 -5,10c-1.41,2.47 -3.08,4.81 -5,7c-23.54,-12.51 -48.54,-20.85 -75,-25c-1.23,-15.37 -2.56,-30.7 -4,-46z" fill="#f0d1b5" id="svg_122"/>
  </g>
  <g id="svg_123">
   <path d="m562.5,361.5c-0.13,5.68 -0.47,11.35 -1,17c-0.9,0.71 -1.24,1.71 -1,3c-76.1,13.61 -131.27,54.94 -165.5,124c-10.88,23.51 -17.38,48.17 -19.5,74c-6.69,0.57 -13.36,1.24 -20,2c3.47,-39.9 15.63,-76.9 36.5,-111c40.54,-61.38 97.37,-97.71 170.5,-109z" fill="#d68645" id="svg_124"/>
  </g>
  <g id="svg_125">
   <path d="m588.5,366.5c-7.14,10.47 -16.47,18.47 -28,24c0.15,-4.02 0.48,-8.02 1,-12c0.53,-5.65 0.87,-11.32 1,-17c0.96,-1.76 1.29,-3.76 1,-6c2.79,1.61 5.45,3.45 8,5.5c2.67,0.67 5.33,0.67 8,0c2.71,-3.92 5.54,-7.76 8.5,-11.5c0.5,5.66 0.67,11.32 0.5,17z" fill="#b99341" id="svg_126"/>
  </g>
  <g id="svg_127">
   <path d="m746.5,365.5c76.51,52.64 118.17,125.64 125,219c1.91,-0.28 3.58,0.05 5,1c-7.41,-0.31 -14.75,-0.98 -22,-2c-7.79,-91.34 -50.12,-161.34 -127,-210c6.09,-3.04 12.43,-5.7 19,-8z" fill="#d07944" id="svg_128"/>
  </g>
  <g id="svg_129">
   <path d="m727.5,373.5c76.88,48.66 119.21,118.66 127,210c-5.37,0.11 -10.7,-0.23 -16,-1c-0.33,0 -0.67,0 -1,0c-1.42,-0.95 -3.09,-1.28 -5,-1c-8.99,-88.05 -51.99,-153.38 -129,-196c7.4,-5.04 15.4,-9.04 24,-12z" fill="#d37f44" id="svg_130"/>
  </g>
  <g id="svg_131">
   <path d="m561.5,378.5c-0.52,3.98 -0.85,7.98 -1,12c0,0.33 0,0.67 0,1c-5.2,2.43 -10.53,4.6 -16,6.5c-0.88,1.36 -1.21,2.86 -1,4.5c-73.62,20.79 -121.79,67.79 -144.5,141c-3.25,11.48 -5.41,23.14 -6.5,35c-5.68,0.13 -11.35,0.47 -17,1c2.12,-25.83 8.62,-50.49 19.5,-74c34.23,-69.06 89.4,-110.39 165.5,-124c-0.24,-1.29 0.1,-2.29 1,-3z" fill="#d98c45" id="svg_132"/>
  </g>
  <g id="svg_133">
   <path d="m588.5,366.5c0,30.67 0,61.33 0,92c-4.66,-2 -9.33,-4 -14,-6c-4.63,-3.32 -9.3,-6.65 -14,-10c-1,-1.67 -2.33,-3 -4,-4c0,-0.33 0,-0.67 0,-1c1,-15.37 2.34,-30.71 4,-46c0,-0.33 0,-0.67 0,-1c11.53,-5.53 20.86,-13.53 28,-24z" fill="#e3d4b3" id="svg_134"/>
  </g>
  <g id="svg_135">
   <path d="m701.5,385.5c0.67,0 1.33,0 2,0c77.01,42.62 120.01,107.95 129,196c1.91,-0.28 3.58,0.05 5,1c-5.66,-0.41 -11.33,-0.74 -17,-1c-2.67,-0.48 -5.17,-1.48 -7.5,-3c-8.16,-70.87 -41.66,-126.04 -100.5,-165.5c-6.91,-4.62 -14.25,-8.46 -22,-11.5c-1.61,-2.1 -2.11,-4.44 -1.5,-7c3.97,-3.39 8.14,-6.39 12.5,-9z" fill="#d68645" id="svg_136"/>
  </g>
  <g id="svg_137" transform="matrix(1, 0, 0, 1, 0, 0)">
   <path d="m32.5,392.5c28.8,8.6 57.46,17.6 86,27c-0.93,2.3 -1.77,4.63 -2.5,7c-24.35,7.55 -48.85,14.71 -73.5,21.5c19.85,6.63 39.85,12.97 60,19c0.46,0.41 0.79,0.91 1,1.5c-0.95,3.2 -2.29,6.2 -4,9c-27.88,-8.59 -55.71,-17.26 -83.5,-26c-0.59,-3.55 0.41,-6.55 3,-9c24.11,-7.04 48.28,-13.87 72.5,-20.5c-20.85,-6.28 -41.51,-12.95 -62,-20c1.5,-3 2.5,-6.17 3,-9.5z" fill="#ffffff" id="svg_138" opacity="0.94"/>
  </g>
  <g id="svg_139">
   <path d="m1159.5,398.5c0.88,-0.13 1.54,0.2 2,1c2.42,4.41 3.25,9.07 2.5,14c-13.62,15.74 -27.12,31.57 -40.5,47.5c17.05,-4.29 34.05,-9.12 51,-14.5c2.1,3.73 3.6,7.73 4.5,12c0.78,1.44 0.61,2.78 -0.5,4c-28.29,8.49 -56.62,16.82 -85,25c-3.66,-5.56 -4.16,-11.22 -1.5,-17c13.17,-15.17 26.33,-30.33 39.5,-45.5c-17.63,4.66 -35.29,9.49 -53,14.5c-1.33,-5.33 -2.67,-10.67 -4,-16c28.61,-7.76 56.94,-16.09 85,-25z" fill="#ffffff" id="svg_140" opacity="0.96"/>
  </g>
  <g id="svg_141">
   <path d="m543.5,402.5c0.01,6.08 0.68,12.08 2,18c-63.92,20.75 -106.42,63.08 -127.5,127c-2.8,9.5 -4.63,19.16 -5.5,29c-6.66,0.74 -13.32,1.41 -20,2c1.09,-11.86 3.25,-23.52 6.5,-35c22.71,-73.21 70.88,-120.21 144.5,-141z" fill="#dc9246" id="svg_142"/>
  </g>
  <g id="svg_143">
   <path d="m690.5,401.5c7.75,3.04 15.09,6.88 22,11.5c58.84,39.46 92.34,94.63 100.5,165.5c2.33,1.52 4.83,2.52 7.5,3c-8.33,-0.67 -16.67,-1.33 -25,-2c-7.52,-67.46 -39.86,-119.12 -97,-155c1.65,-3.31 3.32,-6.64 5,-10c-4.69,-4.02 -9.02,-8.35 -13,-13z" fill="#d98c45" id="svg_144"/>
  </g>
  <g id="svg_145">
   <path d="m618.5,406.5c26.46,4.15 51.46,12.49 75,25c-2.33,2.67 -4.67,5.33 -7,8c-6.35,5.17 -13.02,9.84 -20,14c-9.58,3.64 -19.25,6.64 -29,9c-4.67,0.33 -9.33,0.67 -14,1c-0.33,0 -0.67,0 -1,0c-1,-19.03 -2.34,-38.03 -4,-57z" fill="#f2d6b5" id="svg_146"/>
  </g>
  <g id="svg_147">
   <path d="m560.5,391.5c-1.66,15.29 -3,30.63 -4,46c-0.33,0 -0.67,0 -1,0c-4.12,-5.24 -7.45,-10.91 -10,-17c-1.32,-5.92 -1.99,-11.92 -2,-18c-0.21,-1.64 0.12,-3.14 1,-4.5c5.47,-1.9 10.8,-4.07 16,-6.5z" fill="#f1d4b4" id="svg_148"/>
  </g>
  <g id="svg_149">
   <path d="m937.5,407.5c21.31,27.28 40.64,55.94 58,86c-0.62,0.42 -0.96,1.08 -1,2c8.26,32.82 12.59,66.16 13,100c-5.33,-0.33 -10.67,-0.67 -16,-1c-1.76,-0.96 -3.76,-1.29 -6,-1c-0.87,-65.82 -17.21,-127.49 -49,-185c0.12,-0.61 0.46,-0.94 1,-1z" fill="#ba4e40" id="svg_150"/>
  </g>
  <g id="svg_151">
   <path d="m545.5,420.5c2.55,6.09 5.88,11.76 10,17c0.26,1.48 -0.07,2.81 -1,4c-49.32,13.91 -85.15,43.91 -107.5,90c-6.09,13.78 -10.26,28.11 -12.5,43c-7.29,0.92 -14.62,1.59 -22,2c0.87,-9.84 2.7,-19.5 5.5,-29c21.08,-63.92 63.58,-106.25 127.5,-127z" fill="#df9846" id="svg_152"/>
  </g>
  <g id="svg_153">
   <path d="m698.5,424.5c57.14,35.88 89.48,87.54 97,155c-6.44,-0.09 -12.77,-0.75 -19,-2c-8.89,-60.14 -38.89,-106.14 -90,-138c2.33,-2.67 4.67,-5.33 7,-8c1.92,-2.19 3.59,-4.53 5,-7z" fill="#dc9246" id="svg_154"/>
  </g>
  <g id="svg_155">
   <path d="m686.5,439.5c51.11,31.86 81.11,77.86 90,138c-6.35,-0.06 -12.68,-0.39 -19,-1c-1.03,-0.75 -2.2,-1.41 -3.5,-2c-9.8,-54.59 -38.96,-94.92 -87.5,-121c6.98,-4.16 13.65,-8.83 20,-14z" fill="#df9846" id="svg_156"/>
  </g>
  <g id="svg_157">
   <path d="m555.5,437.5c0.33,0 0.67,0 1,0c0,0.33 0,0.67 0,1c-1.23,6.94 -1.9,13.94 -2,21c-0.9,0.71 -1.24,1.71 -1,3c-54.44,17.88 -87.44,54.88 -99,111c-6.67,0.33 -13.33,0.67 -20,1c2.24,-14.89 6.41,-29.22 12.5,-43c22.35,-46.09 58.18,-76.09 107.5,-90c0.93,-1.19 1.26,-2.52 1,-4z" fill="#e39f47" id="svg_158"/>
  </g>
  <g id="svg_159">
   <path d="m560.5,442.5c4.7,3.35 9.37,6.68 14,10c-1.85,44.34 -3.85,88.68 -6,133c-5.22,-3.77 -10.22,-7.77 -15,-12c2.24,-43.67 4.58,-87.34 7,-131z" fill="#ba9440" id="svg_160"/>
  </g>
  <g id="svg_161">
   <path d="m666.5,453.5c48.54,26.08 77.7,66.41 87.5,121c1.3,0.59 2.47,1.25 3.5,2c-7.73,-0.46 -15.4,-1.13 -23,-2c-11.68,-55.34 -44.02,-92.67 -97,-112c9.75,-2.36 19.42,-5.36 29,-9z" fill="#e39f47" id="svg_162"/>
  </g>
  <g id="svg_163">
   <path d="m556.5,438.5c1.67,1 3,2.33 4,4c-2.42,43.66 -4.76,87.33 -7,131c-3.01,-2.84 -6.35,-5.17 -10,-7c3.08,-14.34 4.75,-29.01 5,-44c1.38,-13.98 2.72,-27.98 4,-42c0.71,-6.99 1.38,-13.99 2,-21c0.1,-7.06 0.77,-14.06 2,-21z" fill="#c59d43" id="svg_164"/>
  </g>
  <g id="svg_165">
   <path d="m574.5,452.5c4.67,2 9.34,4 14,6c0,48 0,96 0,144c-7.28,-4.95 -13.95,-10.61 -20,-17c2.15,-44.32 4.15,-88.66 6,-133z" fill="#ac893c" id="svg_166"/>
  </g>
  <g id="svg_167">
   <path d="m589.5,459.5c10.74,3.36 21.74,4.69 33,4c0.33,0 0.67,0 1,0c-0.03,4.37 0.3,8.7 1,13c0.3,7.51 0.96,14.85 2,22c0.09,6.02 0.43,12.02 1,18c1.19,15.03 2.53,30.03 4,45c0.16,2.03 0,4.03 -0.5,6c-9,7.5 -17.83,15.17 -26.5,23c-4.37,4.37 -9.04,8.37 -14,12c-1,-47.5 -1.33,-95.16 -1,-143z" fill="#0874b9" id="svg_168"/>
  </g>
  <g id="svg_169">
   <path d="m554.5,459.5c-0.62,7.01 -1.29,14.01 -2,21c-42.85,16.18 -69.85,46.52 -81,91c-5.62,0.96 -11.28,1.62 -17,2c11.56,-56.12 44.56,-93.12 99,-111c-0.24,-1.29 0.1,-2.29 1,-3z" fill="#e5a548" id="svg_170"/>
  </g>
  <g id="svg_171">
   <path d="m637.5,462.5c52.98,19.33 85.32,56.66 97,112c-4.65,-0.5 -9.32,-0.83 -14,-1c-1.07,-0.93 -2.4,-1.27 -4,-1c-9.5,-40.81 -33.16,-70.31 -71,-88.5c-6.85,-3 -13.85,-5.5 -21,-7.5c-0.7,-4.3 -1.03,-8.63 -1,-13c4.67,-0.33 9.33,-0.67 14,-1z" fill="#e6a548" id="svg_172"/>
  </g>
  <g id="svg_173">
   <path d="m624.5,476.5c7.15,2 14.15,4.5 21,7.5c37.84,18.19 61.5,47.69 71,88.5c1.6,-0.27 2.93,0.07 4,1c-8.03,-0.37 -16.03,-1.03 -24,-2c-10.73,-37.05 -34.06,-61.39 -70,-73c-1.04,-7.15 -1.7,-14.49 -2,-22z" fill="#e9ab48" id="svg_174"/>
  </g>
  <g id="svg_175" transform="matrix(1, 0, 0, 1, 0, 0)">
   <path d="m-0.5,536.5c0,-0.33 0,-0.67 0,-1c0.93,-3.16 1.6,-6.49 2,-10c19.66,2.67 39.33,5.33 59,8c17.44,-0.91 23.61,-9.58 18.5,-26c-2.96,-3.96 -6.8,-6.79 -11.5,-8.5c-19.89,-3.87 -39.89,-7.03 -60,-9.5c0.33,-4 0.67,-8 1,-12c22.57,2.54 44.9,6.37 67,11.5c18.95,10.38 23.45,25.22 13.5,44.5c-9.94,10.53 -22.11,14.37 -36.5,11.5c-17.75,-2.62 -35.41,-5.46 -53,-8.5z" fill="#ffffff" id="svg_176" opacity="0.95"/>
  </g>
  <g id="svg_177">
   <path d="m552.5,480.5c-1.28,14.02 -2.62,28.02 -4,42c-18.11,10.78 -30.77,26.11 -38,46c-12.95,1.6 -25.95,2.6 -39,3c11.15,-44.48 38.15,-74.82 81,-91z" fill="#e9ad48" id="svg_178"/>
  </g>
  <g id="svg_179">
   <path d="m1189.5,516.5c0,2.67 0,5.33 0,8c-28.68,13.34 -57.34,26.67 -86,40c-0.63,-6 -0.8,-12 -0.5,-18c5.18,-3.4 10.68,-6.23 16.5,-8.5c0.56,-0.73 0.89,-1.56 1,-2.5c-1.21,-7.99 -2.38,-15.99 -3.5,-24c-6.71,-1.57 -13.37,-3.24 -20,-5c-2.2,-5.9 -3.03,-11.9 -2.5,-18c30.59,5.82 61.26,11.32 92,16.5c1.23,3.88 2.23,7.71 3,11.5zm-57,-4c11.17,1.27 22.17,3.1 33,5.5c-10.15,4.75 -20.49,8.91 -31,12.5c-0.39,-6.03 -1.05,-12.03 -2,-18z" fill="#ffffff" id="svg_180" opacity="0.97"/>
  </g>
  <g id="svg_181">
   <path d="m995.5,493.5c6.51,10.34 12.51,21.01 18,32c4.1,8.53 7.93,17.19 11.5,26c0.46,-0.59 0.63,-1.26 0.5,-2c1.37,8.13 2.04,16.46 2,25c0,7.33 0,14.67 0,22c-6.7,0.11 -13.36,-0.22 -20,-1c-0.41,-33.84 -4.74,-67.18 -13,-100c0.04,-0.92 0.38,-1.58 1,-2z" fill="#b7483f" id="svg_182"/>
  </g>
  <g id="svg_183">
   <path d="m696.5,571.5c-4.65,-0.5 -9.32,-0.83 -14,-1c-1.38,-0.73 -2.88,-1.4 -4.5,-2c-9.28,-24.78 -26.12,-42.12 -50.5,-52c-0.57,-5.98 -0.91,-11.98 -1,-18c35.94,11.61 59.27,35.95 70,73z" fill="#ecb149" id="svg_184"/>
  </g>
  <g id="svg_185">
   <path d="m627.5,516.5c24.38,9.88 41.22,27.22 50.5,52c1.62,0.6 3.12,1.27 4.5,2c-15.72,-0.93 -31.38,-2.43 -47,-4.5c-1.23,-1.67 -2.57,-3.17 -4,-4.5c-1.47,-14.97 -2.81,-29.97 -4,-45z" fill="#efb849" id="svg_186"/>
  </g>
  <g id="svg_187">
   <path d="m548.5,522.5c-0.25,14.99 -1.92,29.66 -5,44c-11,0.73 -22,1.4 -33,2c7.23,-19.89 19.89,-35.22 38,-46z" fill="#eeb749" id="svg_188"/>
  </g>
  <g id="svg_189">
   <path d="m543.5,566.5c3.65,1.83 6.99,4.16 10,7c4.78,4.23 9.78,8.23 15,12c6.05,6.39 12.72,12.05 20,17c0.33,0.67 0.67,1.33 1,2c-177,0 -354,0 -531,0c26.83,-2.32 53.83,-4.32 81,-6c6.5,-0.44 12.83,-1.1 19,-2c7.33,-0.44 14.66,-0.78 22,-1c7.26,-0.95 14.59,-1.62 22,-2c5.83,-0.47 11.5,-1.13 17,-2c6.69,-0.03 13.35,-0.36 20,-1c6.4,-0.47 12.73,-1.13 19,-2c6.36,0.02 12.69,-0.31 19,-1c6.73,-0.48 13.4,-1.15 20,-2c6.36,0.09 12.7,-0.24 19,-1c6.83,-0.45 13.5,-1.12 20,-2c6.34,-0.27 12.67,-0.6 19,-1c6.64,-0.76 13.31,-1.43 20,-2c5.65,-0.53 11.32,-0.87 17,-1c6.68,-0.59 13.34,-1.26 20,-2c7.38,-0.41 14.71,-1.08 22,-2c6.67,-0.33 13.33,-0.67 20,-1c5.72,-0.38 11.38,-1.04 17,-2c13.05,-0.4 26.05,-1.4 39,-3c11,-0.6 22,-1.27 33,-2z" fill="#0f74b9" id="svg_190"/>
  </g>
  <g id="svg_191">
   <path d="m631.5,561.5c1.43,1.33 2.77,2.83 4,4.5c15.62,2.07 31.28,3.57 47,4.5c4.68,0.17 9.35,0.5 14,1c7.97,0.97 15.97,1.63 24,2c4.68,0.17 9.35,0.5 14,1c7.6,0.87 15.27,1.54 23,2c6.32,0.61 12.65,0.94 19,1c6.23,1.25 12.56,1.91 19,2c8.33,0.67 16.67,1.33 25,2c5.67,0.26 11.34,0.59 17,1c0.33,0 0.67,0 1,0c0.11,0.62 0.44,1.12 1,1.5c-78.48,3.24 -156.82,5.4 -235,6.5c8.67,-7.83 17.5,-15.5 26.5,-23c0.5,-1.97 0.66,-3.97 0.5,-6z" fill="#fecc5e" id="svg_192"/>
  </g>
  <g id="svg_193">
   <path d="m838.5,582.5c5.3,0.77 10.63,1.11 16,1c7.25,1.02 14.59,1.69 22,2c4.94,0.89 9.94,1.23 15,1c6.51,0.83 13.18,1.5 20,2c5.98,0.66 11.98,1 18,1c8.31,0.87 16.64,1.54 25,2c4.64,0.63 9.31,0.96 14,1c2.6,0.76 5.26,1.1 8,1c0.11,0.62 0.44,1.12 1,1.5c-96.17,2.84 -192.17,6 -288,9.5c-33.35,0.66 -66.35,-0.01 -99,-2c4.96,-3.63 9.63,-7.63 14,-12c78.18,-1.1 156.52,-3.26 235,-6.5c-0.56,-0.38 -0.89,-0.88 -1,-1.5z" fill="#fed16a" id="svg_194"/>
  </g>
  <g id="svg_195">
   <path d="m1027.5,574.5c0.99,7.48 1.33,15.15 1,23c5.85,0.63 11.51,0.63 17,0c24.94,2.21 49.94,4.04 75,5.5c1.24,0.23 2.24,0.73 3,1.5c-144.67,0 -289.33,0 -434,0c95.83,-3.5 191.83,-6.66 288,-9.5c-0.56,-0.38 -0.89,-0.88 -1,-1.5c4.99,0.42 9.99,0.75 15,1c5.33,0.33 10.67,0.67 16,1c6.64,0.78 13.3,1.11 20,1c0,-7.33 0,-14.67 0,-22z" fill="#fed273" id="svg_196"/>
  </g>
  <g id="svg_197">
   <path d="m58.5,604.5c177,0 354,0 531,0c0,0.33 0,0.67 0,1c-0.67,0 -1,0.33 -1,1c-0.33,0 -0.67,0 -1,0c-20.83,-1 -41.83,-1.33 -63,-1c-53.67,0 -107.33,0 -161,0c-95.5,-0.33 -190.84,0 -286,1c-6.96,-0.84 -13.96,-1.17 -21,-1c-0.57,-0.92 0.1,-1.25 2,-1z" fill="#d2c17b" id="svg_198"/>
  </g>
  <g id="svg_199">
   <path d="m588.5,458.5c0.33,0 0.67,0 1,0c0,0.33 0,0.67 0,1c-0.33,47.84 0,95.5 1,143c32.65,1.99 65.65,2.66 99,2c144.67,0 289.33,0 434,0c-4.47,0.99 -9.14,1.32 -14,1c-173,0 -346,0 -519,0c-0.33,0 -0.67,0 -1,0c0,-0.33 0,-0.67 0,-1c-0.33,-0.67 -0.67,-1.33 -1,-2c0,-48 0,-96 0,-144z" fill="#6d9894" id="svg_200"/>
  </g>
  <g id="svg_201">
   <path d="m77.5,606.5c95.16,-1 190.5,-1.33 286,-1c-53.49,3.78 -107.16,7.28 -161,10.5c0.56,0.38 0.89,0.88 1,1.5c-15,-1.33 -30,-2.67 -45,-4c-5.91,-0.96 -11.91,-1.29 -18,-1c-20.82,-2.42 -41.82,-4.42 -63,-6z" fill="#fdd16f" id="svg_202"/>
  </g>
  <g id="svg_203">
   <path d="m363.5,605.5c53.67,0 107.33,0 161,0c-82.83,5.61 -165.83,10.95 -249,16c-3.09,0.02 -5.76,0.69 -8,2c-21.37,-1.85 -42.7,-3.85 -64,-6c-0.11,-0.62 -0.44,-1.12 -1,-1.5c53.84,-3.22 107.51,-6.72 161,-10.5z" fill="#fdcd62" id="svg_204"/>
  </g>
  <g id="svg_205">
   <path d="m590.5,605.5c173,0 346,0 519,0c-21.48,2.47 -43.14,4.47 -65,6c-5.5,0.45 -10.83,1.12 -16,2c-101.01,9.28 -202.01,18.61 -303,28c-7.49,0.77 -14.82,1.77 -22,3c-0.67,0 -1.33,0 -2,0c-10.42,0.64 -20.75,1.64 -31,3c-13.23,0.17 -26.39,1.17 -39.5,3c-2.19,-0.36 -4.03,-1.36 -5.5,-3c-6.62,-8.95 -13.95,-17.28 -22,-25c-4.31,-5.31 -8.64,-10.65 -13,-16c0,-0.33 0,-0.67 0,-1z" fill="#0274ba" id="svg_206"/>
  </g>
  <g id="svg_207">
   <path d="m524.5,605.5c21.17,-0.33 42.17,0 63,1c-2.67,3.33 -5.67,6.33 -9,9c-81.61,5.71 -163.27,10.37 -245,14c-22.07,-1.46 -44.07,-3.46 -66,-6c2.24,-1.31 4.91,-1.98 8,-2c83.17,-5.05 166.17,-10.39 249,-16z" fill="#fcc855" id="svg_208"/>
  </g>
  <g id="svg_209">
   <path d="m587.5,606.5c0.33,0 0.67,0 1,0c0,155.67 0,311.33 0,467c0,4.67 0,9.33 0,14c0,14.67 0,29.33 0,44c-2.58,-24.83 -4.91,-49.83 -7,-75c-2.88,0.31 -5.55,-0.03 -8,-1c2.67,0 5.33,0 8,0c-0.1,-5.87 -0.76,-11.54 -2,-17c-8.58,-96.38 -17.58,-192.71 -27,-289c-1.07,-11.66 -2.07,-23.33 -3,-35c-1.4,-21.73 -3.4,-43.4 -6,-65c6.2,-3.52 11.53,-8.19 16,-14c0.67,-1 1.33,-2 2,-3c3.67,-3 7,-6.33 10,-10c2.67,-2 5,-4.33 7,-7c3.33,-2.67 6.33,-5.67 9,-9z" fill="#0574ba" id="svg_210"/>
  </g>
  <g id="svg_211">
   <path d="m590.5,606.5c4.36,5.35 8.69,10.69 13,16c-0.66,3.15 -1,6.48 -1,10c2.11,72.52 4.78,144.85 8,217c-4.07,47.96 -7.74,95.96 -11,144c-3.33,-96 -6.67,-192 -10,-288c-0.33,-33.17 0,-66.17 1,-99z" fill="#fed069" id="svg_212"/>
  </g>
  <g id="svg_213">
   <path d="m140.5,612.5c6.09,-0.29 12.09,0.04 18,1c0.1,46.49 8.76,91.15 26,134c1.33,4 2.67,8 4,12c-0.33,2.99 0.67,5.32 3,7c1.04,1.43 1.7,3.1 2,5c0.21,2.74 1.21,5.07 3,7c0.84,0.34 1.17,1.01 1,2c19.12,44.61 45.46,84.28 79,119c6.35,8.35 13.69,15.69 22,22c2.69,3.68 6.02,6.68 10,9c1.69,2.69 4.03,4.69 7,6c1.37,2.36 3.37,4.03 6,5c1.08,2.09 2.75,3.42 5,4c1.08,2.09 2.75,3.42 5,4c0.67,0 1,0.33 1,1c0.47,1.41 1.47,2.07 3,2c3.19,3.38 6.85,6.05 11,8c0.47,1.41 1.47,2.07 3,2c24.28,16.64 49.95,30.98 77,43c-15.35,0.59 -30.68,1.59 -46,3c-1.34,2.65 -3,4.99 -5,7c0.83,-4.33 2.17,-8.5 4,-12.5c-28.78,-15.63 -55.44,-34.13 -80,-55.5c-7.34,-7.34 -15.01,-14.34 -23,-21c-3.67,-3 -7,-6.33 -10,-10c-7.41,-8.4 -14.75,-16.74 -22,-25c-9.38,-11.38 -18.38,-23.05 -27,-35c-6.7,-11.02 -13.37,-22.02 -20,-33c-0.67,-1.33 -1.33,-2.67 -2,-4c-3.82,-8.98 -8.16,-17.65 -13,-26c-2.27,-4.88 -4.27,-9.88 -6,-15c-3.88,-8.99 -7.55,-17.99 -11,-27c-3.03,-9.43 -6.03,-18.76 -9,-28c-1.38,-6.85 -3.04,-13.51 -5,-20c-1.05,-7.92 -2.72,-15.59 -5,-23c-0.43,-7.12 -1.43,-14.12 -3,-21c-0.55,-9.19 -1.55,-18.19 -3,-27c0,-6.67 0,-13.33 0,-20z" fill="#fcc74a" id="svg_214"/>
  </g>
  <g id="svg_215">
   <path d="m1044.5,611.5c-0.07,8.01 -0.4,16.01 -1,24c-0.94,6.49 -1.61,13.16 -2,20c-1.45,6.8 -2.45,13.8 -3,21c-2.16,7.77 -3.82,15.77 -5,24c-3.29,11.14 -6.29,22.47 -9,34c-2.57,5.72 -4.57,11.72 -6,18c-3.69,9.72 -7.69,19.38 -12,29c-2,4.67 -4,9.34 -6,14c-4.35,8.69 -8.68,17.36 -13,26c-15.01,26.02 -32.01,50.69 -51,74c-7.01,7.01 -13.67,14.34 -20,22c-4,3.33 -7.67,7 -11,11c-7.06,7.06 -14.39,13.73 -22,20c-25.08,21.07 -52.08,39.4 -81,55c-3.36,2.18 -7.03,3.52 -11,4c-1.16,-1.75 -2.83,-2.75 -5,-3c-2.46,-3.06 -5.46,-5.39 -9,-7c45.91,-21.63 86.58,-50.63 122,-87c6.27,-6.77 12.77,-13.44 19.5,-20c2.08,-2.57 3.91,-5.23 5.5,-8c7.73,-8.06 14.73,-16.73 21,-26c10.4,-14.45 20.07,-29.45 29,-45c5.75,-9.16 10.75,-18.82 15,-29c6.04,-10.76 11.04,-22.1 15,-34c16.2,-43.34 24.2,-88.34 24,-135c5.17,-0.88 10.5,-1.55 16,-2z" fill="#fcc84b" id="svg_216"/>
  </g>
  <g id="svg_217">
   <path d="m578.5,615.5c-2,2.67 -4.33,5 -7,7c-64.65,3.9 -129.32,7.57 -194,11c-14.85,-0.99 -29.51,-2.32 -44,-4c81.73,-3.63 163.39,-8.29 245,-14z" fill="#eab94e" id="svg_218"/>
  </g>
  <g id="svg_219">
   <path d="m56.5,605.5c7.04,-0.17 14.04,0.16 21,1c21.18,1.58 42.18,3.58 63,6c0,6.67 0,13.33 0,20c0,1 0,2 0,3c-27.67,0 -55.33,0 -83,0c-0.87,-9.97 -1.2,-19.97 -1,-30z" fill="#570421" id="svg_220" opacity="1"/>
  </g>
  <g id="svg_221">
   <path d="m1123.5,604.5c1.33,4.45 1.99,9.28 2,14.5c-0.05,5.55 -0.38,11.05 -1,16.5c-27,0 -54,0 -81,0c0.6,-7.99 0.93,-15.99 1,-24c21.86,-1.53 43.52,-3.53 65,-6c4.86,0.32 9.53,-0.01 14,-1z" fill="#570321" id="svg_222" opacity="1"/>
  </g>
  <g id="svg_223">
   <path d="m571.5,622.5c-3,3.67 -6.33,7 -10,10c-40.34,2.38 -80.67,4.71 -121,7c-21.21,-1.29 -42.21,-3.29 -63,-6c64.68,-3.43 129.35,-7.1 194,-11z" fill="#d7ab49" id="svg_224"/>
  </g>
  <g id="svg_225">
   <path d="m603.5,622.5c8.05,7.72 15.38,16.05 22,25c-1.34,24.37 -3,48.7 -5,73c-3.43,42.98 -6.77,85.98 -10,129c-3.22,-72.15 -5.89,-144.48 -8,-217c0,-3.52 0.34,-6.85 1,-10z" fill="#fccb5c" id="svg_226"/>
  </g>
  <g id="svg_227">
   <path d="m561.5,632.5c-0.67,1 -1.33,2 -2,3c-32.57,3.24 -65.24,5.24 -98,6c-7.21,0.04 -14.21,-0.62 -21,-2c40.33,-2.29 80.66,-4.62 121,-7z" fill="#c79f45" id="svg_228"/>
  </g>
  <g id="svg_229">
   <path d="m158.5,613.5c15,1.33 30,2.67 45,4c21.3,2.15 42.63,4.15 64,6c21.93,2.54 43.93,4.54 66,6c14.49,1.68 29.15,3.01 44,4c20.79,2.71 41.79,4.71 63,6c6.79,1.38 13.79,2.04 21,2c0.34,0.84 1.01,1.17 2,1c-1.62,1.62 -3.62,2.78 -6,3.5c-89.78,33.05 -180.78,66.89 -273,101.5c-17.24,-42.85 -25.9,-87.51 -26,-134z" fill="#00376b" id="svg_230"/>
  </g>
  <g id="svg_231">
   <path d="m1028.5,613.5c0.2,46.66 -7.8,91.66 -24,135c-92.3,-35.49 -184.96,-70.33 -278,-104.5c-0.75,-0.67 -1.09,-1.5 -1,-2.5c100.99,-9.39 201.99,-18.72 303,-28z" fill="#00376b" id="svg_232"/>
  </g>
  <g id="svg_233">
   <path d="m559.5,635.5c-4.47,5.81 -9.8,10.48 -16,14c-8.27,-1.26 -16.61,-1.93 -25,-2c-10.28,-1.47 -20.62,-2.47 -31,-3c-7.98,-0.93 -15.98,-1.6 -24,-2c-0.99,0.17 -1.66,-0.16 -2,-1c32.76,-0.76 65.43,-2.76 98,-6z" fill="#b79343" id="svg_234"/>
  </g>
  <g id="svg_235">
   <path d="m463.5,642.5c8.02,0.4 16.02,1.07 24,2c0.45,0.96 1.12,1.79 2,2.5c-2.67,1.33 -5.33,2.67 -8,4c2.9,0.92 3.24,1.75 1,2.5c-1.9,-0.87 -3.74,-1.87 -5.5,-3c-18.29,8.49 -35.62,16.83 -52,25c-73.84,33.79 -149,69.46 -225.5,107c-0.67,-0.67 -1.33,-1.33 -2,-2c0.17,-0.99 -0.16,-1.66 -1,-2c-0.21,-2.74 -1.21,-5.07 -3,-7c-0.3,-1.9 -0.96,-3.57 -2,-5c-0.44,-2.66 -1.44,-4.99 -3,-7c-1.33,-4 -2.67,-8 -4,-12c92.22,-34.61 183.22,-68.45 273,-101.5c2.38,-0.72 4.38,-1.88 6,-3.5z" fill="#003d73" id="svg_236"/>
  </g>
  <g id="svg_237">
   <path d="m725.5,641.5c-0.09,1 0.25,1.83 1,2.5c93.04,34.17 185.7,69.01 278,104.5c-3.96,11.9 -8.96,23.24 -15,34c-95.33,-46 -191,-91.5 -287,-136.5c0.56,-0.38 0.89,-0.88 1,-1.5c7.18,-1.23 14.51,-2.23 22,-3z" fill="#003d73" id="svg_238"/>
  </g>
  <g id="svg_239">
   <path d="m140.5,632.5c1.45,8.81 2.45,17.81 3,27c-28.23,-0.64 -56.23,0.02 -84,2c-1.09,-8.63 -1.75,-17.29 -2,-26c27.67,0 55.33,0 83,0c0,-1 0,-2 0,-3z" fill="#650325" id="svg_240" opacity="1"/>
  </g>
  <g id="svg_241">
   <path d="m1043.5,635.5c27,0 54,0 81,0c0.09,8.21 -0.58,16.21 -2,24c-26.83,-1 -53.83,-1.33 -81,-1c0,-1 0,-2 0,-3c0.39,-6.84 1.06,-13.51 2,-20z" fill="#650225" id="svg_242" opacity="1"/>
  </g>
  <g id="svg_243">
   <path d="m482.5,653.5c0.93,0.82 1.93,1.65 3,2.5c-2.18,0.44 -2.85,1.44 -2,3c-2.18,0.44 -2.85,1.44 -2,3c-0.95,0.62 -1.78,0.45 -2.5,-0.5c-1,0.57 -1.83,1.23 -2.5,2c-2.43,0.02 -4.76,0.52 -7,1.5c0.67,0.33 1.33,0.67 2,1c-86.01,46.7 -171.67,95.2 -257,145.5c-5.76,-9.19 -10.76,-18.86 -15,-29c76.5,-37.54 151.66,-73.21 225.5,-107c16.38,-8.17 33.71,-16.51 52,-25c1.76,1.13 3.6,2.13 5.5,3z" fill="#004179" id="svg_244"/>
  </g>
  <g id="svg_245">
   <path d="m701.5,644.5c0.67,0 1.33,0 2,0c-0.11,0.62 -0.44,1.12 -1,1.5c96,45 191.67,90.5 287,136.5c-4.25,10.18 -9.25,19.84 -15,29c-89.85,-52.3 -178.52,-102.47 -266,-150.5c-1.8,-1.54 -3.47,-3.21 -5,-5c0.83,-0.91 1.83,-1.58 3,-2c-2.3,-1.16 -1.96,-2.16 1,-3c-2.67,-1.33 -5.33,-2.67 -8,-4c0.88,-0.71 1.55,-1.54 2,-2.5z" fill="#004179" id="svg_246"/>
  </g>
  <g id="svg_247">
   <path d="m701.5,644.5c-0.45,0.96 -1.12,1.79 -2,2.5c2.67,1.33 5.33,2.67 8,4c-2.96,0.84 -3.3,1.84 -1,3c-1.17,0.42 -2.17,1.09 -3,2c1.53,1.79 3.2,3.46 5,5c87.48,48.03 176.15,98.2 266,150.5c-8.93,15.55 -18.6,30.55 -29,45c-83.28,-62.58 -166.28,-124.41 -249,-185.5c1.33,-2 1.33,-4 0,-6c1.89,-1.1 2.56,-2.43 2,-4c-1.7,-0.35 -3.03,0.32 -4,2c0.33,0.33 0.67,0.67 1,1c-1.42,1.36 -2.26,2.86 -2.5,4.5c-2.4,-1.91 -4.9,-3.58 -7.5,-5c-2.47,-2 -4.64,-4.33 -6.5,-7c-0.33,0.33 -0.67,0.67 -1,1c-0.5,-1 -1,-2 -1.5,-3c1.09,-1.33 2.43,-2.16 4,-2.5c-0.86,-2.73 -1.7,-2.9 -2.5,-0.5c-1.16,-2.3 -2.16,-1.96 -3,1c-0.67,-2.67 -1.33,-2.67 -2,0c-0.67,-2.67 -1.33,-2.67 -2,0c-1.52,-1.64 -1.69,-3.31 -0.5,-5c10.25,-1.36 20.58,-2.36 31,-3z" fill="#014680" id="svg_248"/>
  </g>
  <g id="svg_249">
   <path d="m476.5,663.5c2.08,0.13 4.08,0.63 6,1.5c0,2.67 0,5.33 0,8c-1.89,1.1 -2.56,2.43 -2,4c1.07,1.28 2.4,1.62 4,1c-16.47,10.65 -32.3,22.15 -47.5,34.5c-0.33,-0.33 -0.67,-0.67 -1,-1c-62.79,47.43 -126.29,94.93 -190.5,142.5c-1.32,0.82 -1.99,1.98 -2,3.5c-11.16,-14.31 -20.83,-29.65 -29,-46c85.33,-50.3 170.99,-98.8 257,-145.5c-0.67,-0.33 -1.33,-0.67 -2,-1c2.24,-0.98 4.57,-1.48 7,-1.5z" fill="#004580" id="svg_250"/>
  </g>
  <g id="svg_251">
   <path d="m143.5,659.5c1.57,6.88 2.57,13.88 3,21c-28.41,-0.33 -56.74,0.01 -85,1c-0.67,-6.67 -1.33,-13.33 -2,-20c27.77,-1.98 55.77,-2.64 84,-2z" fill="#710229" id="svg_252" opacity="0.99"/>
  </g>
  <g id="svg_253">
   <path d="m1041.5,655.5c0,1 0,2 0,3c27.17,-0.33 54.17,0 81,1c-0.17,6.72 -0.84,13.39 -2,20c-27.33,0 -54.67,0 -82,0c0,-1 0,-2 0,-3c0.55,-7.2 1.55,-14.2 3,-21z" fill="#710229" id="svg_254" opacity="1"/>
  </g>
  <g id="svg_255">
   <path d="m518.5,647.5c8.39,0.07 16.73,0.74 25,2c2.6,21.6 4.6,43.27 6,65c-2.73,-4.44 -5.73,-8.77 -9,-13c0.83,-1.67 1.67,-3.33 2.5,-5c1.28,1.15 1.61,0.81 1,-1c-3.5,-3.5 -7,-7 -10.5,-10.5c-0.95,-0.62 -1.78,-0.45 -2.5,0.5c-3.03,-3.44 -5.87,-5.94 -8.5,-7.5c2.14,5.15 5.48,9.49 10,13c-0.63,0.75 -1.13,1.58 -1.5,2.5c-1.96,-2.96 -4.29,-5.63 -7,-8c-0.33,0.33 -0.67,0.67 -1,1c-1.7,-1.87 -3.54,-3.54 -5.5,-5c-1.58,-4.24 -3.58,-8.24 -6,-12c0.17,-1 0.33,-2 0.5,-3c1,0.33 2,0.67 3,1c0.22,-2.93 0.72,-5.76 1.5,-8.5c-1.51,-0.84 -2.01,-2 -1.5,-3.5c1.33,0 2.67,0 4,0c0.56,2.1 1.06,2.26 1.5,0.5c0.38,-2.91 -0.29,-5.74 -2,-8.5z" fill="#0d568f" id="svg_256"/>
  </g>
  <g id="svg_257">
   <path d="m694.5,683.5c4.97,4.8 10.14,9.47 15.5,14c0.72,-0.95 1.55,-1.12 2.5,-0.5c70.33,61 140.67,122 211,183c0.75,0.67 1.09,1.5 1,2.5c-1.59,2.77 -3.42,5.43 -5.5,8c-6.73,6.56 -13.23,13.23 -19.5,20c-65.66,-69 -131.66,-137.66 -198,-206c0.11,-0.62 0.44,-1.12 1,-1.5c-9.36,-8.67 -17.69,-17.67 -25,-27c-0.37,-1.76 0.47,-3.26 2.5,-4.5c2.29,3.3 4.96,6.3 8,9c0.41,-0.46 0.91,-0.79 1.5,-1c1.69,1.36 3.35,2.69 5,4z" fill="#004e8c" id="svg_258"/>
  </g>
  <g id="svg_259">
   <path d="m504.5,685.5c-10.26,12.43 -21.1,24.43 -32.5,36c-27.94,28.95 -56.28,57.61 -85,86c-33.04,34.2 -65.87,68.54 -98.5,103c-4.07,-3.75 -8.07,-7.41 -12,-11c-4.31,-5.31 -8.64,-10.65 -13,-16c-0.17,-1.32 0.16,-2.49 1,-3.5c73.22,-63.36 145.55,-125.69 217,-187c1.33,-1.33 2.67,-2.67 4,-4c0.95,-0.62 1.78,-0.45 2.5,0.5c2.94,-2.19 4.78,-4.69 5.5,-7.5c1.5,-0.51 2.66,-0.01 3.5,1.5c1.17,-1.17 2.33,-2.33 3.5,-3.5c0,-1.33 0,-2.67 0,-4c2.42,0.37 4.42,1.71 6,4c-5.67,5.67 -11.33,11.33 -17,17c0.5,0.5 1,1 1.5,1.5c4.37,-4.54 8.87,-8.87 13.5,-13z" fill="#004e8c" id="svg_260"/>
  </g>
  <g id="svg_261">
   <path d="m625.5,647.5c1.47,1.64 3.31,2.64 5.5,3c13.11,-1.83 26.27,-2.83 39.5,-3c-1.19,1.69 -1.02,3.36 0.5,5c0.67,-2.67 1.33,-2.67 2,0c0.67,-2.67 1.33,-2.67 2,0c0.84,-2.96 1.84,-3.3 3,-1c0.8,-2.4 1.64,-2.23 2.5,0.5c-1.57,0.34 -2.91,1.17 -4,2.5c0.5,1 1,2 1.5,3c0.33,-0.33 0.67,-0.67 1,-1c1.86,2.67 4.03,5 6.5,7c0.36,1.87 1.36,3.37 3,4.5c-0.81,3.23 -1.15,6.23 -1,9c2.43,1.14 4.76,2.48 7,4c1.1,0.77 1.1,1.6 0,2.5c-1.65,-1.31 -3.31,-2.64 -5,-4c-0.59,0.21 -1.09,0.54 -1.5,1c-3.04,-2.7 -5.71,-5.7 -8,-9c-2.03,1.24 -2.87,2.74 -2.5,4.5c7.31,9.33 15.64,18.33 25,27c-0.56,0.38 -0.89,0.88 -1,1.5c-4.97,-4.46 -9.8,-9.13 -14.5,-14c-0.92,0.43 -1.75,0.76 -2.5,1c1.15,1.65 2.48,3.15 4,4.5c-1.72,1.44 -3.22,0.94 -4.5,-1.5c-1.15,0.96 -2.15,0.63 -3,-1c-1.15,0.96 -2.15,0.63 -3,-1c-0.33,0.33 -0.67,0.67 -1,1c-1.1,-1.89 -2.43,-2.56 -4,-2c-1.55,1.65 -3.22,1.98 -5,1c-0.85,1.63 -1.85,1.96 -3,1c-1.67,1 -3.33,2 -5,3c-0.33,-0.33 -0.67,-0.67 -1,-1c-2.33,1.67 -4.67,3.33 -7,5c-2.33,-3.25 -4.33,-2.58 -6,2c-1,-2 -2,-4 -3,-6c-6.28,7.06 -11.45,14.89 -15.5,23.5c0.86,0.69 1.52,1.52 2,2.5c-1.41,3.23 -2.41,6.56 -3,10c-1.24,-3.15 -2.24,-6.48 -3,-10c1.77,-3.17 2.6,-6.51 2.5,-10c-1.33,3.33 -2.67,6.67 -4,10c-0.28,-0.92 -0.78,-1.58 -1.5,-2c2,-24.3 3.66,-48.63 5,-73z" fill="#0d568f" id="svg_262"/>
  </g>
  <g id="svg_263">
   <path d="m945.5,856.5c-6.27,9.27 -13.27,17.94 -21,26c0.09,-1 -0.25,-1.83 -1,-2.5c-70.33,-61 -140.67,-122 -211,-183c-0.95,-0.62 -1.78,-0.45 -2.5,0.5c-5.36,-4.53 -10.53,-9.2 -15.5,-14c1.1,-0.9 1.1,-1.73 0,-2.5c-2.24,-1.52 -4.57,-2.86 -7,-4c-0.15,-2.77 0.19,-5.77 1,-9c-1.64,-1.13 -2.64,-2.63 -3,-4.5c2.6,1.42 5.1,3.09 7.5,5c0.24,-1.64 1.08,-3.14 2.5,-4.5c-0.33,-0.33 -0.67,-0.67 -1,-1c0.97,-1.68 2.3,-2.35 4,-2c0.56,1.57 -0.11,2.9 -2,4c1.33,2 1.33,4 0,6c82.72,61.09 165.72,122.92 249,185.5z" fill="#004a86" id="svg_264"/>
  </g>
  <g id="svg_265">
   <path d="m487.5,644.5c10.38,0.53 20.72,1.53 31,3c1.71,2.76 2.38,5.59 2,8.5c-0.44,1.76 -0.94,1.6 -1.5,-0.5c-1.33,0 -2.67,0 -4,0c-0.51,1.5 -0.01,2.66 1.5,3.5c-0.78,2.74 -1.28,5.57 -1.5,8.5c-1,-0.33 -2,-0.67 -3,-1c-0.17,1 -0.33,2 -0.5,3c2.42,3.76 4.42,7.76 6,12c-2.59,-0.51 -5.42,-0.51 -8.5,0c-1.98,0.82 -3.48,2.15 -4.5,4c-4.63,4.13 -9.13,8.46 -13.5,13c-0.5,-0.5 -1,-1 -1.5,-1.5c5.67,-5.67 11.33,-11.33 17,-17c-1.58,-2.29 -3.58,-3.63 -6,-4c0,1.33 0,2.67 0,4c-1.17,1.17 -2.33,2.33 -3.5,3.5c-0.84,-1.51 -2,-2.01 -3.5,-1.5c-0.72,2.81 -2.56,5.31 -5.5,7.5c-0.72,-0.95 -1.55,-1.12 -2.5,-0.5c-1.33,1.33 -2.67,2.67 -4,4c-71.45,61.31 -143.78,123.64 -217,187c-0.84,1.01 -1.17,2.18 -1,3.5c-7.02,-8.36 -13.69,-17.02 -20,-26c0.01,-1.52 0.68,-2.68 2,-3.5c64.21,-47.57 127.71,-95.07 190.5,-142.5c0.33,0.33 0.67,0.67 1,1c15.2,-12.35 31.03,-23.85 47.5,-34.5c-1.6,0.62 -2.93,0.28 -4,-1c-0.56,-1.57 0.11,-2.9 2,-4c0,-2.67 0,-5.33 0,-8c-1.92,-0.87 -3.92,-1.37 -6,-1.5c0.67,-0.77 1.5,-1.43 2.5,-2c0.72,0.95 1.55,1.12 2.5,0.5c-0.85,-1.56 -0.18,-2.56 2,-3c-0.85,-1.56 -0.18,-2.56 2,-3c-1.07,-0.85 -2.07,-1.68 -3,-2.5c2.24,-0.75 1.9,-1.58 -1,-2.5c2.67,-1.33 5.33,-2.67 8,-4c-0.88,-0.71 -1.55,-1.54 -2,-2.5z" fill="#014a86" id="svg_266"/>
  </g>
  <g id="svg_267">
   <path d="m146.5,680.5c2.28,7.41 3.95,15.08 5,23c-28.67,0 -57.33,0 -86,0c-1.34,-7.36 -2.67,-14.69 -4,-22c28.26,-0.99 56.59,-1.33 85,-1z" fill="#7e022e" id="svg_268" opacity="1"/>
  </g>
  <g id="svg_269">
   <path d="m1038.5,676.5c0,1 0,2 0,3c27.33,0 54.67,0 82,0c-1.24,8.68 -2.57,17.35 -4,26c-27.44,-1.98 -55.11,-2.64 -83,-2c0,-1 0,-2 0,-3c1.18,-8.23 2.84,-16.23 5,-24z" fill="#7e022e" id="svg_270" opacity="0.99"/>
  </g>
  <g id="svg_271">
   <path d="m701.5,704.5c66.34,68.34 132.34,137 198,206c-35.42,36.37 -76.09,65.37 -122,87c-18.95,-0.48 -36.95,3.52 -54,12c-2.36,4.02 -4.69,8.02 -7,12c-6.89,1.81 -13.89,3.47 -21,5c-0.62,-0.11 -1.12,-0.44 -1.5,-1c-23.68,-101.43 -46.18,-199.1 -67.5,-293c0.59,-3.44 1.59,-6.77 3,-10c-0.48,-0.98 -1.14,-1.81 -2,-2.5c4.05,-8.61 9.22,-16.44 15.5,-23.5c1,2 2,4 3,6c1.67,-4.58 3.67,-5.25 6,-2c2.33,-1.67 4.67,-3.33 7,-5c0.33,0.33 0.67,0.67 1,1c1.67,-1 3.33,-2 5,-3c1.15,0.96 2.15,0.63 3,-1c1.78,0.98 3.45,0.65 5,-1c1.57,-0.56 2.9,0.11 4,2c0.33,-0.33 0.67,-0.67 1,-1c0.85,1.63 1.85,1.96 3,1c0.85,1.63 1.85,1.96 3,1c1.28,2.44 2.78,2.94 4.5,1.5c-1.52,-1.35 -2.85,-2.85 -4,-4.5c0.75,-0.24 1.58,-0.57 2.5,-1c4.7,4.87 9.53,9.54 14.5,14z" fill="#005393" id="svg_272"/>
  </g>
  <g id="svg_273">
   <path d="m549.5,714.5c0.93,11.67 1.93,23.34 3,35c-24.38,87.51 -49.38,178.51 -75,273c-15.73,-3.8 -31.07,-8.8 -46,-15c0.11,-0.62 0.44,-1.12 1,-1.5c-1.97,-0.5 -3.97,-0.66 -6,-0.5c-27.05,-12.02 -52.72,-26.36 -77,-43c-0.47,-1.41 -1.47,-2.07 -3,-2c-4.15,-1.95 -7.81,-4.62 -11,-8c-0.47,-1.41 -1.47,-2.07 -3,-2c0,-0.67 -0.33,-1 -1,-1c-1.08,-2.09 -2.75,-3.42 -5,-4c-1.08,-2.09 -2.75,-3.42 -5,-4c-1.39,-2.39 -3.39,-4.06 -6,-5c-1.72,-2.72 -4.05,-4.72 -7,-6c-2.71,-3.71 -6.04,-6.71 -10,-9c-3.33,-3.67 -6.67,-7.33 -10,-11c32.63,-34.46 65.46,-68.8 98.5,-103c28.72,-28.39 57.06,-57.05 85,-86c11.4,-11.57 22.24,-23.57 32.5,-36c1.02,-1.85 2.52,-3.18 4.5,-4c3.08,-0.51 5.91,-0.51 8.5,0c1.96,1.46 3.8,3.13 5.5,5c0.33,-0.33 0.67,-0.67 1,-1c2.71,2.37 5.04,5.04 7,8c0.37,-0.92 0.87,-1.75 1.5,-2.5c-4.52,-3.51 -7.86,-7.85 -10,-13c2.63,1.56 5.47,4.06 8.5,7.5c0.72,-0.95 1.55,-1.12 2.5,-0.5c3.5,3.5 7,7 10.5,10.5c0.61,1.81 0.28,2.15 -1,1c-0.83,1.67 -1.67,3.33 -2.5,5c3.27,4.23 6.27,8.56 9,13z" fill="#015393" id="svg_274"/>
  </g>
  <g id="svg_275">
   <path d="m589.5,705.5c3.33,96 6.67,192 10,288c-1.71,15.28 -2.71,30.62 -3,46c2,0 4,0 6,0c-5.19,9.38 -9.52,19.04 -13,29c0,-121 0,-242 0,-363z" fill="#fed373" id="svg_276"/>
  </g>
  <g id="svg_277">
   <path d="m65.5,703.5c28.67,0 57.33,0 86,0c1.96,6.49 3.62,13.15 5,20c-28.67,0.67 -57.33,1.33 -86,2c-2.16,-7.1 -3.82,-14.44 -5,-22z" fill="#8a0132" id="svg_278" opacity="1"/>
  </g>
  <g id="svg_279">
   <path d="m1033.5,700.5c0,1 0,2 0,3c27.89,-0.64 55.56,0.02 83,2c-2.22,11.2 -4.88,22.2 -8,33c0,-1.33 0,-2.67 0,-4c-28,0 -56,0 -84,0c2.71,-11.53 5.71,-22.86 9,-34z" fill="#8c0133" id="svg_280" opacity="1"/>
  </g>
  <g id="svg_281">
   <path d="m626.5,732.5c21.32,93.9 43.82,191.57 67.5,293c0.38,0.56 0.88,0.89 1.5,1c-14.26,3.38 -28.59,6.38 -43,9c-2.88,-0.31 -5.55,0.03 -8,1c-5.01,0.25 -10.01,0.58 -15,1c11.82,-19.49 27.15,-35.83 46,-49c-0.5,-0.33 -1,-0.67 -1.5,-1c-5.75,2.3 -11.58,4.3 -17.5,6c3.81,-3.63 7.81,-7.13 12,-10.5c-6.56,1.96 -13.22,3.96 -20,6c-11.42,8.09 -21.59,17.59 -30.5,28.5c-5.42,7.24 -10.59,14.57 -15.5,22c-2,0 -4,0 -6,0c0.29,-15.38 1.29,-30.72 3,-46c3.26,-48.04 6.93,-96.04 11,-144c3.23,-43.02 6.57,-86.02 10,-129c0.72,0.42 1.22,1.08 1.5,2c1.33,-3.33 2.67,-6.67 4,-10c0.1,3.49 -0.73,6.83 -2.5,10c0.76,3.52 1.76,6.85 3,10z" fill="#044e8b" id="svg_282"/>
  </g>
  <g id="svg_283">
   <path d="m156.5,723.5c2.97,9.24 5.97,18.57 9,28c-26.72,12.71 -50.38,29.71 -71,51c-10.38,-24.82 -18.38,-50.48 -24,-77c28.67,-0.67 57.33,-1.33 86,-2z" fill="#990037" id="svg_284" opacity="0.99"/>
  </g>
  <g id="svg_285">
   <path d="m1024.5,734.5c28,0 56,0 84,0c0,1.33 0,2.67 0,4c-5.4,22.52 -12.4,44.52 -21,66c-20.71,-20.5 -43.71,-37.84 -69,-52c1.43,-6.28 3.43,-12.28 6,-18z" fill="#9b0137" id="svg_286" opacity="0.99"/>
  </g>
  <g id="svg_287">
   <path d="m165.5,751.5c3.45,9.01 7.12,18.01 11,27c-11.45,6.89 -22.78,14.06 -34,21.5c-1.94,0.91 -2.94,2.41 -3,4.5c14.44,-3.2 28.78,-6.86 43,-11c4.84,8.35 9.18,17.02 13,26c-5.07,2.02 -10.07,4.02 -15,6c-22.94,7.19 -46.27,11.52 -70,13c-6.39,-11.46 -11.73,-23.46 -16,-36c20.62,-21.29 44.28,-38.29 71,-51z" fill="#dfa241" id="svg_288" opacity="1"/>
  </g>
  <g id="svg_289">
   <path d="m1018.5,752.5c25.29,14.16 48.29,31.5 69,52c0.2,3.44 -0.3,6.77 -1.5,10c-2.67,6 -5.33,12 -8,18c-1.67,2.83 -3.83,5.16 -6.5,7c-8.72,-0.01 -17.39,-0.67 -26,-2c-8.41,-1.28 -16.75,-2.95 -25,-5c-4.59,-1.53 -9.26,-2.86 -14,-4c-6.41,-2.14 -12.74,-4.47 -19,-7c4.32,-8.64 8.65,-17.31 13,-26c13.57,3.81 27.23,7.14 41,10c-0.06,-2.09 -1.06,-3.59 -3,-4.5c-8,-5.33 -16,-10.67 -24,-16c-2.61,-1.48 -5.28,-2.65 -8,-3.5c4.31,-9.62 8.31,-19.28 12,-29z" fill="#dea241" id="svg_290" opacity="1"/>
  </g>
  <g id="svg_291">
   <path d="m188.5,759.5c1.56,2.01 2.56,4.34 3,7c-2.33,-1.68 -3.33,-4.01 -3,-7z" fill="#c36e47" id="svg_292"/>
  </g>
  <g id="svg_293">
   <path d="m552.5,749.5c9.42,96.29 18.42,192.62 27,289c-5.33,0 -10.67,0 -16,0c-1.76,-0.96 -3.76,-1.29 -6,-1c-8.28,-9.14 -18.61,-14.64 -31,-16.5c-13.24,-1.87 -25.91,-0.04 -38,5.5c-3.79,-0.93 -7.46,-2.26 -11,-4c25.62,-94.49 50.62,-185.49 75,-273z" fill="#004f8d" id="svg_294"/>
  </g>
  <g id="svg_295">
   <path d="m193.5,771.5c1.79,1.93 2.79,4.26 3,7c-1.79,-1.93 -2.79,-4.26 -3,-7z" fill="#b04c43" id="svg_296"/>
  </g>
  <g id="svg_297">
   <path d="m176.5,778.5c1.73,5.12 3.73,10.12 6,15c-14.22,4.14 -28.56,7.8 -43,11c0.06,-2.09 1.06,-3.59 3,-4.5c11.22,-7.44 22.55,-14.61 34,-21.5z" fill="#0c0b07" id="svg_298"/>
  </g>
  <g id="svg_299">
   <path d="m1006.5,781.5c2.72,0.85 5.39,2.02 8,3.5c8,5.33 16,10.67 24,16c1.94,0.91 2.94,2.41 3,4.5c-13.77,-2.86 -27.43,-6.19 -41,-10c2,-4.66 4,-9.33 6,-14z" fill="#0d0c07" id="svg_300"/>
  </g>
  <g id="svg_301">
   <path d="m195.5,819.5c0.67,1.33 1.33,2.67 2,4c0.33,47.5 0,94.84 -1,142c-5.37,-5.37 -10.37,-11.04 -15,-17c0.67,-20.33 1,-40.83 1,-61.5c0,-20.84 -0.67,-41.34 -2,-61.5c4.93,-1.98 9.93,-3.98 15,-6z" fill="#004784" id="svg_302" opacity="1"/>
  </g>
  <g id="svg_303">
   <path d="m987.5,821.5c6.26,2.53 12.59,4.86 19,7c0,37.67 0,75.33 0,113c-7.29,9.29 -14.96,18.29 -23,27c-11.89,-26.78 -27.55,-51.11 -47,-73c18.99,-23.31 35.99,-47.98 51,-74z" fill="#025393" id="svg_304" opacity="1"/>
  </g>
  <g id="svg_305">
   <path d="m197.5,823.5c6.63,10.98 13.3,21.98 20,33c-1,24.83 -1.33,49.83 -1,75c-7.05,11.44 -13.05,23.44 -18,36c-1,-0.33 -1.67,-1 -2,-2c1,-47.16 1.33,-94.5 1,-142z" fill="#023d75" id="svg_306" opacity="1"/>
  </g>
  <g id="svg_307">
   <path d="m180.5,825.5c1.33,20.16 2,40.66 2,61.5c0,20.67 -0.33,41.17 -1,61.5c-28.42,-33.46 -52.09,-70.12 -71,-110c23.73,-1.48 47.06,-5.81 70,-13z" fill="#025293" id="svg_308" opacity="0.99"/>
  </g>
  <g id="svg_309">
   <path d="m1006.5,828.5c4.74,1.14 9.41,2.47 14,4c0,30.33 0,60.67 0,91c-4.32,6.31 -8.98,12.31 -14,18c0,-37.67 0,-75.33 0,-113z" fill="#004682" id="svg_310" opacity="0.99"/>
  </g>
  <g id="svg_311">
   <path d="m589.5,605.5c0.33,0 0.67,0 1,0c0,0.33 0,0.67 0,1c-1,32.83 -1.33,65.83 -1,99c0,121 0,242 0,363c0.28,1.91 -0.05,3.58 -1,5c0,-155.67 0,-311.33 0,-467c0,-0.67 0.33,-1 1,-1z" fill="#87a796" id="svg_312"/>
  </g>
  <g id="svg_313">
   <path d="m1020.5,832.5c8.25,2.05 16.59,3.72 25,5c0,16.33 0,32.67 0,49c-7.6,12.89 -15.94,25.22 -25,37c0,-30.33 0,-60.67 0,-91z" fill="#003a71" id="svg_314" opacity="0.99"/>
  </g>
  <g id="svg_315">
   <path d="m197.5,780.5c0.67,0.67 1.33,1.33 2,2c4.24,10.14 9.24,19.81 15,29c8.17,16.35 17.84,31.69 29,46c6.31,8.98 12.98,17.64 20,26c4.36,5.35 8.69,10.69 13,16c-33.54,-34.72 -59.88,-74.39 -79,-119z" fill="#b14d43" id="svg_316"/>
  </g>
  <g id="svg_317">
   <path d="m1045.5,837.5c8.61,1.33 17.28,1.99 26,2c-7.92,16.18 -16.59,31.85 -26,47c0,-16.33 0,-32.67 0,-49z" fill="#012b5d" id="svg_318" opacity="0.99"/>
  </g>
  <g id="svg_319">
   <path d="m217.5,856.5c8.62,11.95 17.62,23.62 27,35c0.8,0.92 0.97,1.92 0.5,3c-10.51,11.66 -20.01,24 -28.5,37c-0.33,-25.17 0,-50.17 1,-75z" fill="#053063" id="svg_320"/>
  </g>
  <g id="svg_321">
   <path d="m244.5,891.5c7.25,8.26 14.59,16.6 22,25c-2.8,1.21 -4.96,3.21 -6.5,6c-5.95,8.95 -12.28,17.61 -19,26c-0.48,0.95 -0.65,1.95 -0.5,3c2.73,0.24 5.06,-0.6 7,-2.5c10.17,-7.06 19.83,-14.56 29,-22.5c7.99,6.66 15.66,13.66 23,21c-12.15,9.31 -24.49,18.48 -37,27.5c-12.04,7.24 -24.37,13.74 -37,19.5c-9.98,-7.98 -18.98,-16.98 -27,-27c4.95,-12.56 10.95,-24.56 18,-36c8.49,-13 17.99,-25.34 28.5,-37c0.47,-1.08 0.3,-2.08 -0.5,-3z" fill="#dfa241" id="svg_322" opacity="1"/>
  </g>
  <g id="svg_323">
   <path d="m936.5,895.5c19.45,21.89 35.11,46.22 47,73c-0.73,2.01 -1.56,4.01 -2.5,6c-6.5,6.5 -13,13 -19.5,19.5c-1.65,0.61 -3.32,1.11 -5,1.5c-27.27,-11.3 -51.61,-26.97 -73,-47c7.61,-6.27 14.94,-12.94 22,-20c10.73,9.05 22.06,17.38 34,25c1.11,-1.22 1.28,-2.56 0.5,-4c-8.05,-10.54 -15.88,-21.21 -23.5,-32c6.33,-7.66 12.99,-14.99 20,-22z" fill="#dfa242" id="svg_324" opacity="1"/>
  </g>
  <g id="svg_325">
   <path d="m276.5,899.5c3.93,3.59 7.93,7.25 12,11c3.33,3.67 6.67,7.33 10,11c-8.31,-6.31 -15.65,-13.65 -22,-22z" fill="#bc5943" id="svg_326"/>
  </g>
  <g id="svg_327">
   <path d="m266.5,916.5c3,3.67 6.33,7 10,10c-9.17,7.94 -18.83,15.44 -29,22.5c-1.94,1.9 -4.27,2.74 -7,2.5c-0.15,-1.05 0.02,-2.05 0.5,-3c6.72,-8.39 13.05,-17.05 19,-26c1.54,-2.79 3.7,-4.79 6.5,-6z" fill="#0c0b07" id="svg_328"/>
  </g>
  <g id="svg_329">
   <path d="m916.5,917.5c7.62,10.79 15.45,21.46 23.5,32c0.78,1.44 0.61,2.78 -0.5,4c-11.94,-7.62 -23.27,-15.95 -34,-25c3.33,-4 7,-7.67 11,-11z" fill="#0f0d08" id="svg_330"/>
  </g>
  <g id="svg_331">
   <path d="m298.5,921.5c3.96,2.29 7.29,5.29 10,9c-3.98,-2.32 -7.31,-5.32 -10,-9z" fill="#b45445" id="svg_332"/>
  </g>
  <g id="svg_333">
   <path d="m308.5,930.5c2.95,1.28 5.28,3.28 7,6c-2.97,-1.31 -5.31,-3.31 -7,-6z" fill="#b05447" id="svg_334"/>
  </g>
  <g id="svg_335">
   <path d="m315.5,936.5c2.61,0.94 4.61,2.61 6,5c-2.63,-0.97 -4.63,-2.64 -6,-5z" fill="#b25847" id="svg_336"/>
  </g>
  <g id="svg_337">
   <path d="m321.5,941.5c2.25,0.58 3.92,1.91 5,4c-2.25,-0.58 -3.92,-1.91 -5,-4z" fill="#984d50" id="svg_338"/>
  </g>
  <g id="svg_339">
   <path d="m326.5,945.5c2.25,0.58 3.92,1.91 5,4c-2.25,-0.58 -3.92,-1.91 -5,-4z" fill="#a6534c" id="svg_340"/>
  </g>
  <g id="svg_341">
   <path d="m299.5,947.5c24.56,21.37 51.22,39.87 80,55.5c-1.83,4 -3.17,8.17 -4,12.5c-8.52,23.46 -12.86,47.8 -13,73c-50.63,-24.34 -96.3,-55.67 -137,-94c12.63,-5.76 24.96,-12.26 37,-19.5c12.51,-9.02 24.85,-18.19 37,-27.5z" fill="#9c0037" id="svg_342" opacity="0.99"/>
  </g>
  <g id="svg_343">
   <path d="m883.5,948.5c21.39,20.03 45.73,35.7 73,47c-40.79,38.75 -86.79,70.08 -138,94c0.22,-7.04 -0.11,-14.04 -1,-21c0,-0.67 0,-1.33 0,-2c-2.96,-21.49 -7.96,-42.49 -15,-63c28.92,-15.6 55.92,-33.93 81,-55z" fill="#9c0037" id="svg_344" opacity="0.99"/>
  </g>
  <g id="svg_345">
   <path d="m332.5,950.5c1.53,-0.07 2.53,0.59 3,2c-1.53,0.07 -2.53,-0.59 -3,-2z" fill="#af5447" id="svg_346"/>
  </g>
  <g id="svg_347">
   <path d="m346.5,960.5c1.53,-0.07 2.53,0.59 3,2c-1.53,0.07 -2.53,-0.59 -3,-2z" fill="#a0514d" id="svg_348"/>
  </g>
  <g id="svg_349">
   <path d="m656.5,993.5c-15.58,12.58 -28.25,27.58 -38,45c-3.12,5.68 -5.45,11.68 -7,18c-3.42,11.8 -2.25,23.13 3.5,34c2.44,2.95 5.27,5.28 8.5,7c9.9,5.99 20.56,7.49 32,4.5c12.81,-2.49 21.64,-9.66 26.5,-21.5c1.52,-7.94 -0.64,-14.6 -6.5,-20c-4.61,-4.81 -10.28,-7.81 -17,-9c-5.76,-1.56 -11.76,-2.22 -18,-2c-4.09,0.88 -7.76,2.55 -11,5c-1,0 -2,0 -3,0c-0.13,-0.74 0.04,-1.41 0.5,-2c6.03,-5.2 11.86,-10.53 17.5,-16c2.45,-0.97 5.12,-1.31 8,-1c13,-0.16 25,3.18 36,10c1.7,2.02 3.36,4.02 5,6c3.88,8.62 3.71,17.28 -0.5,26c-10.9,22.21 -28.73,34.71 -53.5,37.5c-12.47,1.87 -24.13,-0.29 -35,-6.5c-5.33,-3.33 -9.67,-7.67 -13,-13c-0.3,-1.9 -0.96,-3.57 -2,-5c0.24,-1.29 -0.1,-2.29 -1,-3c0,-4.67 0,-9.33 0,-14c0.95,-1.42 1.28,-3.09 1,-5c3.48,-9.96 7.81,-19.62 13,-29c4.91,-7.43 10.08,-14.76 15.5,-22c8.91,-10.91 19.08,-20.41 30.5,-28.5c6.78,-2.04 13.44,-4.04 20,-6c-4.19,3.37 -8.19,6.87 -12,10.5z" fill="#fbfbfb" id="svg_350"/>
  </g>
  <g id="svg_351">
   <path d="m629.5,1037.5c-0.33,0 -0.67,0 -1,0c-3.29,0.71 -6.62,1.04 -10,1c9.75,-17.42 22.42,-32.42 38,-45c5.92,-1.7 11.75,-3.7 17.5,-6c0.5,0.33 1,0.67 1.5,1c-18.85,13.17 -34.18,29.51 -46,49z" fill="#021434" id="svg_352"/>
  </g>
  <g id="svg_353">
   <path d="m777.5,997.5c3.54,1.61 6.54,3.94 9,7c0.97,2.95 1.13,5.95 0.5,9c-2.17,6.36 -5,12.36 -8.5,18c-2,3.33 -4,6.67 -6,10c-6.33,8.67 -12.67,17.33 -19,26c-4.93,6.1 -10.09,12.1 -15.5,18c-0.69,0.83 -0.52,1.5 0.5,2c1.9,-0.77 3.56,-1.77 5,-3c2.96,-0.82 5.96,-1.49 9,-2c3.26,-0.98 6.6,-1.65 10,-2c11.22,-1.53 22.22,-4.03 33,-7.5c1.67,-1 3.33,-2 5,-3c2.17,-3.34 4.84,-6.17 8,-8.5c1.43,0.23 1.93,0.9 1.5,2c-3.72,4.88 -7.22,9.88 -10.5,15c-3.16,3.66 -6.49,7.16 -10,10.5c-5.71,1.17 -11.37,2.34 -17,3.5c-14.64,1.72 -28.97,4.38 -43,8c-4,1.49 -7.34,3.99 -10,7.5c-2,0.67 -4,0.67 -6,0c13.27,-14.74 24.94,-30.57 35,-47.5c7.71,-8.74 13.37,-18.74 17,-30c1.51,-3.04 2.18,-6.38 2,-10c0.17,-0.99 -0.16,-1.66 -1,-2c-0.84,-1.67 -2.18,-2.84 -4,-3.5c-13.59,-1.6 -26.26,0.9 -38,7.5c-3.27,1.42 -6.43,3.09 -9.5,5c-0.5,-0.33 -1,-0.67 -1.5,-1c1.26,-1.53 2.26,-3.2 3,-5c2.31,-3.98 4.64,-7.98 7,-12c17.05,-8.48 35.05,-12.48 54,-12z" fill="#f9f9f9" id="svg_354"/>
  </g>
  <g id="svg_355">
   <path d="m802.5,1003.5c7.04,20.51 12.04,41.51 15,63c-1.7,-0.16 -3.37,0.01 -5,0.5c-3.28,5.12 -7.62,8.96 -13,11.5c3.28,-5.12 6.78,-10.12 10.5,-15c0.43,-1.1 -0.07,-1.77 -1.5,-2c-3.16,2.33 -5.83,5.16 -8,8.5c-1.67,1 -3.33,2 -5,3c-10.78,3.47 -21.78,5.97 -33,7.5c-1.36,-1.69 -2.7,-3.36 -4,-5c0,-0.33 0,-0.67 0,-1c6.73,-7.8 12.73,-16.13 18,-25c2.26,3.6 4.93,6.94 8,10c0.33,-1.17 0.67,-2.33 1,-3.5c-1.08,-5.16 -2.08,-10.33 -3,-15.5c7.5,-8.99 11,-19.32 10.5,-31c-0.72,-0.54 -1.22,-1.21 -1.5,-2c3.97,-0.48 7.64,-1.82 11,-4z" fill="#dea142" id="svg_356"/>
  </g>
  <g id="svg_357">
   <path d="m426.5,1005.5c2.03,-0.16 4.03,0 6,0.5c-0.56,0.38 -0.89,0.88 -1,1.5c-0.61,0.89 -0.94,1.89 -1,3c-9.7,24.78 -15.7,50.45 -18,77c-0.87,2.22 -1.2,4.55 -1,7c-2,0 -4,0 -6,0c-4.02,0.15 -8.02,0.48 -12,1c-2.31,0.49 -4.64,0.83 -7,1c3.82,-12.95 7.49,-25.95 11,-39c2.99,-11.62 5.82,-23.28 8.5,-35c0.8,-2.54 0.63,-4.87 -0.5,-7c-7.03,-0.12 -14.03,0.21 -21,1c-3.21,0.31 -6.21,-0.02 -9,-1c2,-2.01 3.66,-4.35 5,-7c15.32,-1.41 30.65,-2.41 46,-3z" fill="#fbfbfa" id="svg_358"/>
  </g>
  <g id="svg_359">
   <path d="m786.5,1004.5c2.17,0.25 3.84,1.25 5,3c0.28,0.79 0.78,1.46 1.5,2c0.5,11.68 -3,22.01 -10.5,31c-1.18,-3.07 -2.52,-6.07 -4,-9c3.5,-5.64 6.33,-11.64 8.5,-18c0.63,-3.05 0.47,-6.05 -0.5,-9z" fill="#072619" id="svg_360"/>
  </g>
  <g id="svg_361">
   <path d="m431.5,1007.5c14.93,6.2 30.27,11.2 46,15c3.54,1.74 7.21,3.07 11,4c-6.04,3.19 -11.7,7.02 -17,11.5c-0.95,0.48 -1.95,0.65 -3,0.5c-7.12,-1.59 -14.12,-3.59 -21,-6c-4.82,-1.82 -9.49,-3.82 -14,-6c1.67,-5.34 3.34,-10.68 5,-16c-2.67,0 -5.33,0 -8,0c0.06,-1.11 0.39,-2.11 1,-3z" fill="#fcc74c" id="svg_362"/>
  </g>
  <g id="svg_363">
   <path d="m766.5,1018.5c-16.73,1.57 -32.39,6.57 -47,15c0.86,-4.05 2.52,-7.71 5,-11c11.74,-6.6 24.41,-9.1 38,-7.5c1.82,0.66 3.16,1.83 4,3.5z" fill="#0b2f1d" id="svg_364"/>
  </g>
  <g id="svg_365">
   <path d="m405.5,1015.5c-0.37,2.2 -1.04,4.2 -2,6c-8.01,0.31 -16.01,0.48 -24,0.5c1.87,-1.7 3.54,-3.54 5,-5.5c6.97,-0.79 13.97,-1.12 21,-1z" fill="#0a281c" id="svg_366"/>
  </g>
  <g id="svg_367">
   <path d="m375.5,1015.5c2.79,0.98 5.79,1.31 9,1c-1.46,1.96 -3.13,3.8 -5,5.5c7.99,-0.02 15.99,-0.19 24,-0.5c-2.35,11.39 -5.01,22.72 -8,34c0.25,1.21 0.91,1.88 2,2c-3.51,13.05 -7.18,26.05 -11,39c2.36,-0.17 4.69,-0.51 7,-1c-0.49,2.32 -1.49,4.32 -3,6c-9.79,-3.58 -19.12,-7.92 -28,-13c0.14,-25.2 4.48,-49.54 13,-73z" fill="#dea142" id="svg_368" opacity="1"/>
  </g>
  <g id="svg_369">
   <path d="m557.5,1037.5c4.28,5.24 6.95,11.24 8,18c-0.29,13.04 -4.46,24.71 -12.5,35c-13.42,15.58 -28.25,29.58 -44.5,42c-5.95,3.32 -11.62,7.15 -17,11.5c-3.38,0.34 -6.71,0.84 -10,1.5c-4.99,0.94 -9.99,1.44 -15,1.5c8.08,-4.69 15.74,-9.86 23,-15.5c1.65,-0.16 2.99,-0.83 4,-2c16.96,-11.12 31.12,-25.12 42.5,-42c5.45,-9.33 7.78,-19.33 7,-30c-0.21,-1.56 -0.71,-2.89 -1.5,-4c-1.2,-5.08 -3.86,-9.08 -8,-12c-4.93,-4.97 -10.93,-8.14 -18,-9.5c-8.9,-2.43 -17.56,-1.93 -26,1.5c-5.11,1.21 -9.11,3.87 -12,8c-5.3,4.41 -7.14,10.08 -5.5,17c1.76,6.91 5.59,12.24 11.5,16c8.68,7.17 18.68,10 30,8.5c3.94,-1.99 7.94,-3.33 12,-4c1.33,0.67 1.33,1.33 0,2c-3.58,2.28 -6.91,4.78 -10,7.5c-5.34,3.28 -11.18,5.28 -17.5,6c-10.21,-0.94 -19.71,-3.94 -28.5,-9c-13.94,-8.75 -17.1,-20.42 -9.5,-35c3.1,-3.88 5.93,-7.88 8.5,-12c1.05,0.15 2.05,-0.02 3,-0.5c5.3,-4.48 10.96,-8.31 17,-11.5c12.09,-5.54 24.76,-7.37 38,-5.5c12.39,1.86 22.72,7.36 31,16.5z" fill="#f9fafb" id="svg_370" opacity="1"/>
  </g>
  <g id="svg_371">
   <path d="m766.5,1018.5c0.84,0.34 1.17,1.01 1,2c-1.92,0.86 -3.92,1.53 -6,2c-9.63,3.99 -19.3,7.66 -29,11c-14.48,4.62 -29.15,8.62 -44,12c-11,-6.82 -23,-10.16 -36,-10c14.41,-2.62 28.74,-5.62 43,-9c7.11,-1.53 14.11,-3.19 21,-5c-0.74,1.8 -1.74,3.47 -3,5c0.5,0.33 1,0.67 1.5,1c3.07,-1.91 6.23,-3.58 9.5,-5c-2.48,3.29 -4.14,6.95 -5,11c14.61,-8.43 30.27,-13.43 47,-15z" fill="#f7c64d" id="svg_372"/>
  </g>
  <g id="svg_373">
   <path d="m405.5,1015.5c1.13,2.13 1.3,4.46 0.5,7c-2.68,11.72 -5.51,23.38 -8.5,35c-1.09,-0.12 -1.75,-0.79 -2,-2c2.99,-11.28 5.65,-22.61 8,-34c0.96,-1.8 1.63,-3.8 2,-6z" fill="#12110e" id="svg_374"/>
  </g>
  <g id="svg_375">
   <path d="m767.5,1020.5c0.18,3.62 -0.49,6.96 -2,10c-2.37,-2.08 -3.71,-4.75 -4,-8c2.08,-0.47 4.08,-1.14 6,-2z" fill="#0f0f0b" id="svg_376"/>
  </g>
  <g id="svg_377">
   <path d="m761.5,1022.5c0.29,3.25 1.63,5.92 4,8c-3.63,11.26 -9.29,21.26 -17,30c-5.16,-8.32 -9.83,-16.99 -14,-26c-0.46,-0.8 -1.12,-1.13 -2,-1c9.7,-3.34 19.37,-7.01 29,-11z" fill="#dea243" id="svg_378"/>
  </g>
  <g id="svg_379">
   <path d="m430.5,1010.5c2.67,0 5.33,0 8,0c-1.66,5.32 -3.33,10.66 -5,16c-6.03,16.45 -10.36,33.45 -13,51c-0.33,0.67 -0.67,1.33 -1,2c-2.33,2.67 -4.67,5.33 -7,8c2.3,-26.55 8.3,-52.22 18,-77z" fill="#07271b" id="svg_380"/>
  </g>
  <g id="svg_381">
   <path d="m433.5,1026.5c4.51,2.18 9.18,4.18 14,6c-7.24,16.17 -16.24,31.17 -27,45c2.64,-17.55 6.97,-34.55 13,-51z" fill="#d99f42" id="svg_382" opacity="1"/>
  </g>
  <g id="svg_383">
   <path d="m533.5,1041.5c-10.19,-4.62 -20.85,-6.12 -32,-4.5c-5.12,1.4 -9.79,3.56 -14,6.5c-0.33,0 -0.67,0 -1,0c-2.57,-0.22 -4.9,-0.89 -7,-2c3.05,-3.05 6.38,-5.71 10,-8c8.44,-3.43 17.1,-3.93 26,-1.5c7.07,1.36 13.07,4.53 18,9.5z" fill="#0c2f1d" id="svg_384"/>
  </g>
  <g id="svg_385">
   <path d="m447.5,1032.5c6.88,2.41 13.88,4.41 21,6c-2.57,4.12 -5.4,8.12 -8.5,12c-7.6,14.58 -4.44,26.25 9.5,35c1.79,2.62 4.12,4.78 7,6.5c20.96,12.09 39.96,9.76 57,-7c-0.93,-0.99 -2.1,-1.49 -3.5,-1.5c-4.69,2.1 -9.53,3.77 -14.5,5c3.09,-2.72 6.42,-5.22 10,-7.5c1.33,-0.67 1.33,-1.33 0,-2c-4.06,0.67 -8.06,2.01 -12,4c-11.32,1.5 -21.32,-1.33 -30,-8.5c-4.62,-6.22 -6.12,-13.22 -4.5,-21c1.95,-3.78 4.45,-7.11 7.5,-10c0.33,0 0.67,0 1,0c17.62,4.72 35.62,8.06 54,10c0.79,1.11 1.29,2.44 1.5,4c0.78,10.67 -1.55,20.67 -7,30c-11.38,16.88 -25.54,30.88 -42.5,42c-32.63,-5.07 -64.29,-13.74 -95,-26c0,-0.33 0,-0.67 0,-1c1,-0.33 1.67,-1 2,-2c6,-0.33 12,-0.67 18,-1c-0.05,-6.69 0.29,-13.36 1,-20c0.33,-0.67 0.67,-1.33 1,-2c10.76,-13.83 19.76,-28.83 27,-45z" fill="#045494" id="svg_386"/>
  </g>
  <g id="svg_387">
   <path d="m489.5,1033.5c-3.62,2.29 -6.95,4.95 -10,8c-0.67,0 -1.33,0 -2,0c2.89,-4.13 6.89,-6.79 12,-8z" fill="#eabf52" id="svg_388"/>
  </g>
  <g id="svg_389">
   <path d="m533.5,1041.5c4.14,2.92 6.8,6.92 8,12c-18.38,-1.94 -36.38,-5.28 -54,-10c4.21,-2.94 8.88,-5.1 14,-6.5c11.15,-1.62 21.81,-0.12 32,4.5z" fill="#f7c54c" id="svg_390"/>
  </g>
  <g id="svg_391">
   <path d="m644.5,1036.5c-5.64,5.47 -11.47,10.8 -17.5,16c-0.46,0.59 -0.63,1.26 -0.5,2c-2,0.33 -4,0.67 -6,1c2.12,-6.24 4.79,-12.24 8,-18c0.33,0 0.67,0 1,0c4.99,-0.42 9.99,-0.75 15,-1z" fill="#f7c64f" id="svg_392"/>
  </g>
  <g id="svg_393">
   <path d="m563.5,1038.5c5.33,0 10.67,0 16,0c1.24,5.46 1.9,11.13 2,17c-2.67,0 -5.33,0 -8,0c-1,0 -2,0 -3,0c-1.56,-6.28 -4.56,-11.78 -9,-16.5c0.59,-0.46 1.26,-0.63 2,-0.5z" fill="#f8c64c" id="svg_394"/>
  </g>
  <g id="svg_395">
   <path d="m628.5,1037.5c-3.21,5.76 -5.88,11.76 -8,18c-0.33,0 -0.67,0 -1,0c-2.78,-0.22 -5.45,0.11 -8,1c1.55,-6.32 3.88,-12.32 7,-18c3.38,0.04 6.71,-0.29 10,-1z" fill="#0a2e1e" id="svg_396"/>
  </g>
  <g id="svg_397">
   <path d="m732.5,1033.5c0.88,-0.13 1.54,0.2 2,1c4.17,9.01 8.84,17.68 14,26c-10.06,16.93 -21.73,32.76 -35,47.5c2,0.67 4,0.67 6,0c2.66,-3.51 6,-6.01 10,-7.5c-3.12,4.29 -6.45,8.46 -10,12.5c1.77,1.49 3.77,1.82 6,1c2.66,-3.51 6,-6.01 10,-7.5c1.92,3.53 2.59,7.53 2,12c-30.73,8.95 -62.07,14.95 -94,18c0,-5 0,-10 0,-15c25.84,-3.03 44.68,-16.03 56.5,-39c6.41,-12.39 4.41,-23.06 -6,-32c-0.4,0.23 -0.57,0.56 -0.5,1c-1.64,-1.98 -3.3,-3.98 -5,-6c14.85,-3.38 29.52,-7.38 44,-12z" fill="#023367" id="svg_398"/>
  </g>
  <g id="svg_399">
   <path d="m557.5,1037.5c2.24,-0.29 4.24,0.04 6,1c-0.74,-0.13 -1.41,0.04 -2,0.5c4.44,4.72 7.44,10.22 9,16.5c-1.67,0 -3.33,0 -5,0c-1.05,-6.76 -3.72,-12.76 -8,-18z" fill="#153521" id="svg_400"/>
  </g>
  <g id="svg_401">
   <path d="m477.5,1041.5c0.67,0 1.33,0 2,0c2.1,1.11 4.43,1.78 7,2c-3.05,2.89 -5.55,6.22 -7.5,10c-1.62,7.78 -0.12,14.78 4.5,21c-5.91,-3.76 -9.74,-9.09 -11.5,-16c-1.64,-6.92 0.2,-12.59 5.5,-17z" fill="#03173a" id="svg_402"/>
  </g>
  <g id="svg_403">
   <path d="m772.5,1041.5c1.33,2.67 2.67,5.33 4,8c-5.27,8.87 -11.27,17.2 -18,25c-1.67,-2 -3.33,-4 -5,-6c0,-0.33 0,-0.67 0,-1c6.33,-8.67 12.67,-17.33 19,-26z" fill="#082619" id="svg_404"/>
  </g>
  <g id="svg_405">
   <path d="m778.5,1031.5c1.48,2.93 2.82,5.93 4,9c0.92,5.17 1.92,10.34 3,15.5c-0.33,1.17 -0.67,2.33 -1,3.5c-3.07,-3.06 -5.74,-6.4 -8,-10c-1.33,-2.67 -2.67,-5.33 -4,-8c2,-3.33 4,-6.67 6,-10z" fill="#0e0c09" id="svg_406"/>
  </g>
  <g id="svg_407">
   <path d="m640.5,1049.5c6.24,-0.22 12.24,0.44 18,2c-6.99,0.78 -13.99,1.44 -21,2c1,-1.33 2,-2.67 3,-4z" fill="#103223" id="svg_408"/>
  </g>
  <g id="svg_409">
   <path d="m640.5,1049.5c-1,1.33 -2,2.67 -3,4c-0.99,-0.17 -1.66,0.16 -2,1c-2,0 -4,0 -6,0c3.24,-2.45 6.91,-4.12 11,-5z" fill="#edc25b" id="svg_410"/>
  </g>
  <g id="svg_411">
   <path d="m658.5,1051.5c6.72,1.19 12.39,4.19 17,9c-9.91,-4.28 -20.24,-5.78 -31,-4.5c-3.45,1.23 -6.78,2.73 -10,4.5c-1,-0.5 -2,-1 -3,-1.5c1.54,-1.37 2.88,-2.87 4,-4.5c0.34,-0.84 1.01,-1.17 2,-1c7.01,-0.56 14.01,-1.22 21,-2z" fill="#02122e" id="svg_412"/>
  </g>
  <g id="svg_413">
   <path d="m565.5,1055.5c1.67,0 3.33,0 5,0c2.31,12.11 0.14,23.44 -6.5,34c-12.36,17.53 -27.2,32.53 -44.5,45c-0.33,0 -0.67,0 -1,0c-3.33,-0.67 -6.67,-1.33 -10,-2c16.25,-12.42 31.08,-26.42 44.5,-42c8.04,-10.29 12.21,-21.96 12.5,-35z" fill="#021537" id="svg_414"/>
  </g>
  <g id="svg_415">
   <path d="m570.5,1055.5c1,0 2,0 3,0c2.45,0.97 5.12,1.31 8,1c2.09,25.17 4.42,50.17 7,75c0,2.33 0,4.67 0,7c-7.33,0 -14.67,0 -22,0c-15.75,-0.4 -31.42,-1.73 -47,-4c17.3,-12.47 32.14,-27.47 44.5,-45c6.64,-10.56 8.81,-21.89 6.5,-34z" fill="#015292" id="svg_416"/>
  </g>
  <g id="svg_417">
   <path d="m619.5,1055.5c-3.62,11.64 -3.79,23.31 -0.5,35c1.01,2.7 2.51,5.04 4.5,7c-3.23,-1.72 -6.06,-4.05 -8.5,-7c-5.75,-10.87 -6.92,-22.2 -3.5,-34c2.55,-0.89 5.22,-1.22 8,-1z" fill="#071735" id="svg_418"/>
  </g>
  <g id="svg_419">
   <path d="m626.5,1054.5c1,0 2,0 3,0c2,0 4,0 6,0c-1.12,1.63 -2.46,3.13 -4,4.5c1,0.5 2,1 3,1.5c3.22,-1.77 6.55,-3.27 10,-4.5c10.76,-1.28 21.09,0.22 31,4.5c5.86,5.4 8.02,12.06 6.5,20c-4.86,11.84 -13.69,19.01 -26.5,21.5c-11.44,2.99 -22.1,1.49 -32,-4.5c-1.99,-1.96 -3.49,-4.3 -4.5,-7c-3.29,-11.69 -3.12,-23.36 0.5,-35c0.33,0 0.67,0 1,0c2,-0.33 4,-0.67 6,-1z" fill="#034079" id="svg_420"/>
  </g>
  <g id="svg_421">
   <path d="m817.5,1066.5c0,0.67 0,1.33 0,2c-6.43,8.01 -12.77,16.17 -19,24.5c-6.57,2.58 -13.24,4.42 -20,5.5c-0.33,0 -0.67,0 -1,0c-1.67,-2 -3.33,-4 -5,-6c5.63,-1.16 11.29,-2.33 17,-3.5c3.51,-3.34 6.84,-6.84 10,-10.5c5.38,-2.54 9.72,-6.38 13,-11.5c1.63,-0.49 3.3,-0.66 5,-0.5z" fill="#0b281a" id="svg_422"/>
  </g>
  <g id="svg_423">
   <path d="m753.5,1068.5c1.67,2 3.33,4 5,6c0,0.33 0,0.67 0,1c-2.7,1.73 -4.7,4.07 -6,7c-3.04,0.51 -6.04,1.18 -9,2c-0.44,0.07 -0.77,-0.1 -1,-0.5c3.8,-5.11 7.47,-10.27 11,-15.5z" fill="#010a20" id="svg_424"/>
  </g>
  <g id="svg_425">
   <path d="m817.5,1068.5c0.89,6.96 1.22,13.96 1,21c0.13,0.88 -0.2,1.54 -1,2c-10.73,4.96 -21.56,9.63 -32.5,14c-0.38,-0.56 -0.88,-0.89 -1.5,-1c-1.67,-2 -3.33,-4 -5,-6c6.76,-1.08 13.43,-2.92 20,-5.5c6.23,-8.33 12.57,-16.49 19,-24.5z" fill="#da9f40" id="svg_426" opacity="0.97"/>
  </g>
  <g id="svg_427">
   <path d="m758.5,1075.5c1.3,1.64 2.64,3.31 4,5c-3.4,0.35 -6.74,1.02 -10,2c1.3,-2.93 3.3,-5.27 6,-7z" fill="#112c57" id="svg_428"/>
  </g>
  <g id="svg_429">
   <path d="m753.5,1067.5c0,0.33 0,0.67 0,1c-3.53,5.23 -7.2,10.39 -11,15.5c0.23,0.4 0.56,0.57 1,0.5c-1.44,1.23 -3.1,2.23 -5,3c-1.02,-0.5 -1.19,-1.17 -0.5,-2c5.41,-5.9 10.57,-11.9 15.5,-18z" fill="#16335f" id="svg_430"/>
  </g>
  <g id="svg_431">
   <path d="m419.5,1079.5c-0.71,6.64 -1.05,13.31 -1,20c-6,0.33 -12,0.67 -18,1c2.01,-1.68 3.68,-3.68 5,-6c2,0 4,0 6,0c-0.2,-2.45 0.13,-4.78 1,-7c2.33,-2.67 4.67,-5.33 7,-8z" fill="#011436" id="svg_432"/>
  </g>
  <g id="svg_433">
   <path d="m643.5,1121.5c-11.75,0.71 -22.75,-1.79 -33,-7.5c-2.54,-1.38 -4.54,-3.22 -6,-5.5c10.87,6.21 22.53,8.37 35,6.5c24.77,-2.79 42.6,-15.29 53.5,-37.5c4.21,-8.72 4.38,-17.38 0.5,-26c-0.07,-0.44 0.1,-0.77 0.5,-1c10.41,8.94 12.41,19.61 6,32c-11.82,22.97 -30.66,35.97 -56.5,39z" fill="#03112c" id="svg_434"/>
  </g>
  <g id="svg_435">
   <path d="m469.5,1085.5c8.79,5.06 18.29,8.06 28.5,9c6.32,-0.72 12.16,-2.72 17.5,-6c4.97,-1.23 9.81,-2.9 14.5,-5c1.4,0.01 2.57,0.51 3.5,1.5c-17.04,16.76 -36.04,19.09 -57,7c-2.88,-1.72 -5.21,-3.88 -7,-6.5z" fill="#011539" id="svg_436"/>
  </g>
  <g id="svg_437">
   <path d="m588.5,1087.5c0.9,0.71 1.24,1.71 1,3c-0.33,10.18 0.01,20.18 1,30c-0.82,6.3 -1.15,12.63 -1,19c-7.85,0.33 -15.52,-0.01 -23,-1c7.33,0 14.67,0 22,0c0,-2.33 0,-4.67 0,-7c0,-14.67 0,-29.33 0,-44z" fill="#769690" id="svg_438"/>
  </g>
  <g id="svg_439">
   <path d="m589.5,1090.5c1.04,1.43 1.7,3.1 2,5c-0.48,8.33 -0.81,16.66 -1,25c-0.99,-9.82 -1.33,-19.82 -1,-30z" fill="#f3d07d" id="svg_440"/>
  </g>
  <g id="svg_441">
   <path d="m772.5,1092.5c1.67,2 3.33,4 5,6c-14.33,1.61 -28.33,4.27 -42,8c-4,1.49 -7.34,3.99 -10,7.5c-2.23,0.82 -4.23,0.49 -6,-1c3.55,-4.04 6.88,-8.21 10,-12.5c14.03,-3.62 28.36,-6.28 43,-8z" fill="#081024" id="svg_442"/>
  </g>
  <g id="svg_443">
   <path d="m405.5,1094.5c-1.32,2.32 -2.99,4.32 -5,6c-0.33,1 -1,1.67 -2,2c-2.18,-1.29 -4.18,-0.96 -6,1c-1.33,0 -2,-0.67 -2,-2c1.51,-1.68 2.51,-3.68 3,-6c3.98,-0.52 7.98,-0.85 12,-1z" fill="#0c2920" id="svg_444"/>
  </g>
  <g id="svg_445">
   <path d="m398.5,1102.5c0,0.33 0,0.67 0,1c-2,0 -4,0 -6,0c1.82,-1.96 3.82,-2.29 6,-1z" fill="#cd9d4b" id="svg_446" opacity="0.51"/>
  </g>
  <g id="svg_447">
   <path d="m777.5,1098.5c0.33,0 0.67,0 1,0c1.67,2 3.33,4 5,6c-2.4,-0.24 -4.4,0.43 -6,2c-13.27,4.2 -26.61,8.2 -40,12c0.59,-4.47 -0.08,-8.47 -2,-12c13.67,-3.73 27.67,-6.39 42,-8z" fill="#012756" id="svg_448"/>
  </g>
  <g id="svg_449">
   <path d="m783.5,1104.5c-1.71,1.24 -3.71,1.91 -6,2c1.6,-1.57 3.6,-2.24 6,-2z" fill="#a67944" id="svg_450" opacity="0.49"/>
  </g>
  <g id="svg_451">
   <path d="m591.5,1095.5c3.33,5.33 7.67,9.67 13,13c1.46,2.28 3.46,4.12 6,5.5c10.25,5.71 21.25,8.21 33,7.5c0,5 0,10 0,15c-17.95,1.8 -35.95,2.8 -54,3c-0.15,-6.37 0.18,-12.7 1,-19c0.19,-8.34 0.52,-16.67 1,-25z" fill="#044a85" id="svg_452"/>
  </g>
  <g id="svg_453">
   <path d="m398.5,1103.5c30.71,12.26 62.37,20.93 95,26c-1.01,1.17 -2.35,1.84 -4,2c-30.37,-6.39 -60.2,-15.05 -89.5,-26c-1.03,-0.34 -1.53,-1 -1.5,-2z" fill="#c39446" id="svg_454" opacity="0.51"/>
  </g>
  <g id="svg_455">
   <path d="m508.5,1132.5c3.33,0.67 6.67,1.33 10,2c0,0.33 0,0.67 0,1c-6.49,4.97 -13.15,9.8 -20,14.5c-8.95,0.63 -17.62,2.13 -26,4.5c-0.67,0 -1.33,0 -2,0c3.41,-3.22 7.08,-6.22 11,-9c3.29,-0.66 6.62,-1.16 10,-1.5c5.38,-4.35 11.05,-8.18 17,-11.5z" fill="#073657" id="svg_456" opacity="0.94"/>
  </g>
  <g id="svg_457">
   <path d="m777.5,1106.5c-59.52,23.2 -121.35,34.53 -185.5,34c-24.7,0.49 -49.2,-1.18 -73.5,-5c0,-0.33 0,-0.67 0,-1c0.33,0 0.67,0 1,0c15.58,2.27 31.25,3.6 47,4c7.48,0.99 15.15,1.33 23,1c18.05,-0.2 36.05,-1.2 54,-3c31.93,-3.05 63.27,-9.05 94,-18c13.39,-3.8 26.73,-7.8 40,-12z" fill="#b98e47" id="svg_458" opacity="0.7"/>
  </g>
 </g>
</svg>